%
M48
METRIC,TZ,000.000
T01C0.609600
T02C1.016000
T03C2.000000
%
T01
X15494Y17239
X22123Y15410
X20066Y18382
X10693Y11067
X17551Y11067
T02
X28981Y10711
X26441Y10711
X28981Y13251
X26441Y13251
X28981Y15791
X26441Y15791
X9296Y6901
X11836Y6901
X14376Y6901
X16916Y6901
X9931Y18966
X12471Y18966
X15011Y18966
X17551Y18966
T03
X27406Y19406
X27406Y7406
M30
