G75*
%MOMM*%
%OFA0B0*%
%FSLAX33Y33*%
%IPPOS*%
%LPD*%
%AMOC8*
5,1,8,0,0,1.08239X$1,22.5*
%
%ADD10C,1.880*%
%ADD11R,3.200X1.200*%
%ADD12R,1.000X4.600*%
%ADD13R,1.600X3.400*%
%ADD14R,1.200X1.200*%
%ADD15C,0.152*%
%ADD16C,0.686*%
D10*
X24377Y10141D03*
X21837Y10141D03*
X24377Y12681D03*
X21837Y12681D03*
X24377Y15221D03*
X21837Y15221D03*
X11592Y18214D03*
X14132Y18214D03*
X16672Y18214D03*
X19212Y18214D03*
X11415Y07445D03*
X13955Y07445D03*
X16495Y07445D03*
X19035Y07445D03*
D11*
X11681Y14636D03*
X18481Y14636D03*
X18481Y10636D03*
X11681Y10636D03*
D12*
X06081Y12036D03*
X04081Y12036D03*
D13*
X08481Y06836D03*
X01681Y06836D03*
D14*
X05131Y17436D03*
X07231Y17436D03*
D15*
X16545Y07546D02*
X17460Y07546D01*
X19593Y09680D01*
X20051Y09680D01*
X20660Y10290D01*
X20660Y10747D01*
X21422Y11509D01*
X23251Y11509D01*
X24318Y12576D01*
X16545Y07546D02*
X16495Y07445D01*
X24318Y12576D02*
X24377Y12681D01*
X18527Y10747D02*
X18374Y10899D01*
X17060Y11814D01*
X18527Y10747D02*
X18481Y10636D01*
X25423Y08113D02*
X26189Y08880D01*
X26189Y13033D01*
X25275Y13947D01*
X21422Y13947D02*
X23099Y13947D01*
X25275Y13947D01*
X21422Y13947D02*
X18374Y10899D01*
X18481Y10636D01*
X11821Y10747D02*
X16393Y10747D01*
X17060Y11814D01*
X11821Y10747D02*
X11681Y10636D01*
X16672Y18214D02*
X17460Y18214D01*
X19136Y16538D01*
X22184Y16538D01*
X23099Y15624D01*
X23099Y13947D01*
X05268Y12880D02*
X05268Y14862D01*
X05268Y17300D01*
X05268Y12880D02*
X06030Y12118D01*
X05268Y17300D02*
X05131Y17436D01*
X06030Y12118D02*
X06081Y12036D01*
X18527Y14709D02*
X21270Y14709D01*
X21727Y15166D01*
X18527Y14709D02*
X18481Y14636D01*
X21727Y15166D02*
X21837Y15221D01*
X11821Y15928D02*
X11821Y14862D01*
X11821Y14709D01*
X11821Y15928D02*
X14107Y18214D01*
X11821Y14709D02*
X11681Y14636D01*
X14107Y18214D02*
X14132Y18214D01*
X18374Y14709D02*
X17765Y14709D01*
X14259Y18214D01*
X18374Y14709D02*
X18481Y14636D01*
X14259Y18214D02*
X14132Y18214D01*
X05268Y14862D02*
X11821Y14862D01*
X11681Y14636D01*
X04201Y12118D02*
X04201Y18062D01*
X04506Y18367D01*
X11364Y18367D01*
X11516Y18214D01*
X04201Y12118D02*
X04081Y12036D01*
X11516Y18214D02*
X11592Y18214D01*
X21727Y10137D02*
X21727Y08461D01*
X19441Y06175D01*
X10907Y06175D01*
X09535Y07546D01*
X09535Y08613D01*
X08773Y09375D01*
X05573Y09375D01*
X04201Y10747D01*
X04201Y11966D01*
X21727Y10137D02*
X21837Y10141D01*
X04201Y11966D02*
X04081Y12036D01*
X09078Y15471D02*
X07249Y17300D01*
X09535Y14252D02*
X11821Y11966D01*
X14412Y11966D01*
X07249Y17300D02*
X07231Y17436D01*
D16*
X17060Y11814D03*
X25423Y08113D03*
X09078Y15471D03*
X09535Y14252D03*
X14412Y11966D03*
M02*
