G75*
%MOMM*%
%OFA0B0*%
%FSLAX33Y33*%
%IPPOS*%
%LPD*%
%AMOC8*
5,1,8,0,0,1.08239X$1,22.5*
%
%ADD10C,0.051*%
%ADD11C,0.025*%
%ADD12C,0.076*%
%ADD13C,0.203*%
%ADD14C,0.102*%
%ADD15R,0.549X0.757*%
%ADD16R,0.534X0.772*%
%ADD17R,0.534X0.757*%
%ADD18R,0.134X0.757*%
%ADD19R,0.549X0.757*%
D10*
X02962Y06956D02*
X03056Y07050D01*
X03056Y07143D01*
X02962Y07236D01*
X02496Y07236D01*
X02496Y07143D02*
X02496Y07329D01*
X02590Y07891D02*
X02496Y07797D01*
X02496Y07611D01*
X02590Y07518D01*
X02683Y07518D01*
X02776Y07611D01*
X02776Y07797D01*
X02869Y07891D01*
X02962Y07891D01*
X03056Y07797D01*
X03056Y07611D01*
X02962Y07518D01*
X03056Y08265D02*
X02496Y08265D01*
X02496Y08079D02*
X02496Y08452D01*
X02776Y08640D02*
X02776Y09013D01*
X02496Y09574D02*
X02496Y09202D01*
X02776Y09202D01*
X02683Y09388D01*
X02683Y09481D01*
X02776Y09574D01*
X02962Y09574D01*
X03056Y09481D01*
X03056Y09295D01*
X02962Y09202D01*
X02496Y09763D02*
X02869Y09763D01*
X03056Y09949D01*
X02869Y10136D01*
X02496Y10136D01*
X14029Y06672D02*
X13936Y06766D01*
X13750Y06766D01*
X13656Y06672D01*
X13656Y06579D01*
X13750Y06486D01*
X13936Y06486D01*
X14029Y06393D01*
X14029Y06300D01*
X13936Y06206D01*
X13750Y06206D01*
X13656Y06300D01*
X14218Y06579D02*
X14218Y06300D01*
X14311Y06206D01*
X14404Y06300D01*
X14497Y06206D01*
X14591Y06300D01*
X14591Y06579D01*
X14779Y06579D02*
X14872Y06579D01*
X14872Y06206D01*
X14779Y06206D02*
X14965Y06206D01*
X14872Y06766D02*
X14872Y06859D01*
X15246Y06672D02*
X15246Y06300D01*
X15340Y06206D01*
X15340Y06579D02*
X15153Y06579D01*
X15900Y06579D02*
X15621Y06579D01*
X15527Y06486D01*
X15527Y06300D01*
X15621Y06206D01*
X15900Y06206D01*
X16089Y06206D02*
X16089Y06766D01*
X16089Y06486D02*
X16182Y06579D01*
X16368Y06579D01*
X16462Y06486D01*
X16462Y06206D01*
X22356Y03456D02*
X22543Y03456D01*
X22450Y03456D02*
X22450Y04016D01*
X22543Y04016D02*
X22356Y04016D01*
X23103Y03922D02*
X23010Y04016D01*
X22824Y04016D01*
X22731Y03922D01*
X22731Y03550D01*
X22824Y03456D01*
X23010Y03456D01*
X23103Y03550D01*
X23665Y03922D02*
X23572Y04016D01*
X23385Y04016D01*
X23292Y03922D01*
X23292Y03829D01*
X23385Y03736D01*
X23572Y03736D01*
X23665Y03643D01*
X23665Y03550D01*
X23572Y03456D01*
X23385Y03456D01*
X23292Y03550D01*
X23853Y03456D02*
X23853Y04016D01*
X24133Y04016D01*
X24226Y03922D01*
X24226Y03736D01*
X24133Y03643D01*
X23853Y03643D01*
X11379Y12166D02*
X11006Y12166D01*
X11006Y11886D01*
X11193Y11979D01*
X11286Y11979D01*
X11379Y11886D01*
X11379Y11700D01*
X11286Y11606D01*
X11100Y11606D01*
X11006Y11700D01*
X11568Y12166D02*
X11568Y11793D01*
X11754Y11606D01*
X11941Y11793D01*
X11941Y12166D01*
X13779Y12072D02*
X13686Y12166D01*
X13500Y12166D01*
X13406Y12072D01*
X13406Y11700D01*
X13500Y11606D01*
X13686Y11606D01*
X13779Y11700D01*
X13779Y11886D01*
X13593Y11886D01*
X13968Y11606D02*
X13968Y12166D01*
X14341Y11606D01*
X14341Y12166D01*
X14529Y12166D02*
X14529Y11606D01*
X14809Y11606D01*
X14902Y11700D01*
X14902Y12072D01*
X14809Y12166D01*
X14529Y12166D01*
X16006Y11606D02*
X16006Y12166D01*
X16286Y12166D01*
X16379Y12072D01*
X16379Y11886D01*
X16286Y11793D01*
X16006Y11793D01*
X16193Y11793D02*
X16379Y11606D01*
X16941Y12072D02*
X16847Y12166D01*
X16661Y12166D01*
X16568Y12072D01*
X16568Y11979D01*
X16661Y11886D01*
X16847Y11886D01*
X16941Y11793D01*
X16941Y11700D01*
X16847Y11606D01*
X16661Y11606D01*
X16568Y11700D01*
X17315Y11606D02*
X17315Y12166D01*
X17129Y12166D02*
X17502Y12166D01*
X18286Y11606D02*
X18286Y12166D01*
X18006Y11886D01*
X18379Y11886D01*
X18568Y11606D02*
X18941Y12166D01*
X19129Y12166D02*
X19129Y11606D01*
X19502Y11606D01*
X20063Y12166D02*
X19690Y12166D01*
X19690Y11606D01*
X20063Y11606D01*
X19877Y11886D02*
X19690Y11886D01*
X20252Y12166D02*
X20252Y11606D01*
X20531Y11606D01*
X20624Y11700D01*
X20624Y12072D01*
X20531Y12166D01*
X20252Y12166D01*
X11206Y00900D02*
X11206Y01272D01*
X11300Y01366D01*
X11486Y01366D01*
X11579Y01272D01*
X11579Y00900D01*
X11486Y00806D01*
X11300Y00806D01*
X11206Y00900D01*
X11579Y01272D01*
X13806Y01179D02*
X13993Y01366D01*
X13993Y00806D01*
X14179Y00806D02*
X13806Y00806D01*
X16779Y00806D02*
X16406Y00806D01*
X16779Y01179D01*
X16779Y01272D01*
X16686Y01366D01*
X16500Y01366D01*
X16406Y01272D01*
X19006Y01272D02*
X19100Y01366D01*
X19286Y01366D01*
X19379Y01272D01*
X19379Y01179D01*
X19286Y01086D01*
X19193Y01086D01*
X19286Y01086D02*
X19379Y00993D01*
X19379Y00900D01*
X19286Y00806D01*
X19100Y00806D01*
X19006Y00900D01*
D11*
X08644Y12031D02*
X08644Y11751D01*
X08830Y11751D01*
X09111Y12031D02*
X08924Y12031D01*
X08924Y11751D01*
X09111Y11751D01*
X09018Y11891D02*
X08924Y11891D01*
X09205Y12031D02*
X09205Y11751D01*
X09345Y11751D01*
X09391Y11798D01*
X09391Y11984D01*
X09345Y12031D01*
X09205Y12031D01*
X10794Y04394D02*
X10794Y04673D01*
X10887Y04580D01*
X10980Y04673D01*
X10980Y04394D01*
X11214Y04673D02*
X11121Y04673D01*
X11074Y04627D01*
X11074Y04440D01*
X11121Y04394D01*
X11214Y04394D01*
X11261Y04440D01*
X11261Y04627D01*
X11214Y04673D01*
X11541Y04627D02*
X11495Y04673D01*
X11402Y04673D01*
X11355Y04627D01*
X11355Y04580D01*
X11402Y04534D01*
X11495Y04534D01*
X11541Y04487D01*
X11541Y04440D01*
X11495Y04394D01*
X11402Y04394D01*
X11355Y04440D01*
X11636Y04394D02*
X11729Y04394D01*
X11682Y04394D02*
X11682Y04673D01*
X11636Y04673D02*
X11729Y04673D01*
X13394Y04394D02*
X13394Y04673D01*
X13487Y04580D01*
X13580Y04673D01*
X13580Y04394D01*
X13674Y04394D02*
X13768Y04394D01*
X13721Y04394D02*
X13721Y04673D01*
X13674Y04673D02*
X13768Y04673D01*
X14048Y04627D02*
X14001Y04673D01*
X13908Y04673D01*
X13861Y04627D01*
X13861Y04580D01*
X13908Y04534D01*
X14001Y04534D01*
X14048Y04487D01*
X14048Y04440D01*
X14001Y04394D01*
X13908Y04394D01*
X13861Y04440D01*
X14282Y04673D02*
X14189Y04673D01*
X14142Y04627D01*
X14142Y04440D01*
X14189Y04394D01*
X14282Y04394D01*
X14329Y04440D01*
X14329Y04627D01*
X14282Y04673D01*
X16380Y04627D02*
X16334Y04673D01*
X16240Y04673D01*
X16194Y04627D01*
X16194Y04580D01*
X16240Y04534D01*
X16334Y04534D01*
X16380Y04487D01*
X16380Y04440D01*
X16334Y04394D01*
X16240Y04394D01*
X16194Y04440D01*
X16661Y04627D02*
X16614Y04673D01*
X16521Y04673D01*
X16474Y04627D01*
X16474Y04440D01*
X16521Y04394D01*
X16614Y04394D01*
X16661Y04440D01*
X16755Y04394D02*
X16755Y04673D01*
X16755Y04487D02*
X16941Y04673D01*
X16802Y04534D02*
X16941Y04394D01*
D12*
X21418Y12225D02*
X22033Y12225D01*
X22156Y12348D01*
X22156Y12594D01*
X22033Y12717D01*
X21418Y12717D01*
X21418Y12974D02*
X22156Y12974D01*
X22156Y13342D01*
X22033Y13465D01*
X21541Y13465D01*
X21418Y13342D01*
X21418Y12974D01*
X21418Y13722D02*
X22156Y14214D01*
X22156Y13722D02*
X21418Y14214D01*
X21541Y14962D02*
X21418Y14839D01*
X21418Y14594D01*
X21541Y14471D01*
X21664Y14471D01*
X21787Y14594D01*
X21787Y14839D01*
X21910Y14962D01*
X22033Y14962D01*
X22156Y14839D01*
X22156Y14594D01*
X22033Y14471D01*
X03719Y14019D02*
X03719Y14646D01*
X04033Y14960D01*
X04346Y14646D01*
X04346Y14019D01*
X04346Y14489D02*
X03719Y14489D01*
X04655Y14646D02*
X04655Y14019D01*
X04655Y14333D02*
X04968Y14646D01*
X05125Y14646D01*
X06061Y14960D02*
X06061Y14019D01*
X05591Y14019D01*
X05434Y14176D01*
X05434Y14489D01*
X05591Y14646D01*
X06061Y14646D01*
X06370Y14646D02*
X06370Y14176D01*
X06526Y14019D01*
X06997Y14019D01*
X06997Y14646D01*
X07305Y14646D02*
X07462Y14646D01*
X07462Y14019D01*
X07305Y14019D02*
X07619Y14019D01*
X07462Y14960D02*
X07462Y15116D01*
X08086Y14803D02*
X08086Y14176D01*
X08242Y14019D01*
X08242Y14646D02*
X07929Y14646D01*
X08553Y14019D02*
X09023Y14019D01*
X09180Y14176D01*
X09023Y14333D01*
X08709Y14333D01*
X08553Y14489D01*
X08709Y14646D01*
X09180Y14646D01*
X09488Y14646D02*
X09488Y14176D01*
X09645Y14019D01*
X10115Y14019D01*
X10115Y14646D02*
X10115Y13862D01*
X09958Y13706D01*
X09802Y13706D01*
D13*
X09111Y05512D02*
X09111Y09012D01*
X08311Y09012D01*
X08311Y06512D01*
X07111Y06512D01*
X03111Y06512D02*
X01911Y06512D01*
X01911Y09012D01*
X01111Y09012D01*
X01111Y05512D01*
X03111Y01512D02*
X07111Y01512D01*
X25012Y04316D02*
X25647Y04951D01*
X25647Y06221D02*
X25012Y06856D01*
X25647Y07491D01*
X25647Y08761D02*
X25012Y09396D01*
X25647Y10031D01*
X25647Y11301D02*
X25012Y11936D01*
X25012Y04316D02*
X21202Y04316D01*
X20567Y04951D01*
X20567Y06221D01*
X21202Y06856D01*
X20567Y07491D01*
X20567Y08761D01*
X21202Y09396D01*
X20567Y10031D01*
X20567Y11301D01*
X21202Y11936D01*
X21202Y06856D02*
X25012Y06856D01*
X25012Y09396D02*
X21202Y09396D01*
X21202Y11936D02*
X25012Y11936D01*
X25647Y11301D02*
X25647Y10031D01*
X25647Y08761D02*
X25647Y07491D01*
X25647Y06221D02*
X25647Y04951D01*
X25982Y04951D02*
X25982Y06221D01*
X18577Y14929D02*
X19847Y14929D01*
X20482Y14294D01*
X20482Y13024D02*
X19847Y12389D01*
X15402Y14294D02*
X16037Y14929D01*
X17307Y14929D01*
X17942Y14294D01*
X17942Y13024D02*
X17307Y12389D01*
X16037Y12389D01*
X15402Y13024D01*
X17942Y14294D02*
X18577Y14929D01*
X17942Y13024D02*
X18577Y12389D01*
X19847Y12389D01*
X10957Y14929D02*
X12227Y14929D01*
X12862Y14294D01*
X12862Y13024D02*
X12227Y12389D01*
X12862Y14294D02*
X13497Y14929D01*
X14767Y14929D01*
X15402Y14294D01*
X15402Y13024D02*
X14767Y12389D01*
X13497Y12389D01*
X12862Y13024D01*
X10322Y13024D02*
X10322Y14294D01*
X10957Y14929D01*
X10322Y13024D02*
X10957Y12389D01*
X12227Y12389D01*
X20482Y13024D02*
X20482Y14294D01*
X18400Y04159D02*
X19670Y04159D01*
X20305Y03524D01*
X20305Y02254D02*
X19670Y01619D01*
X15225Y03524D02*
X15860Y04159D01*
X17130Y04159D01*
X17765Y03524D01*
X17765Y02254D02*
X17130Y01619D01*
X15860Y01619D01*
X15225Y02254D01*
X17765Y03524D02*
X18400Y04159D01*
X17765Y02254D02*
X18400Y01619D01*
X19670Y01619D01*
X10780Y04159D02*
X12050Y04159D01*
X12685Y03524D01*
X12685Y02254D02*
X12050Y01619D01*
X12685Y03524D02*
X13320Y04159D01*
X14590Y04159D01*
X15225Y03524D01*
X15225Y02254D02*
X14590Y01619D01*
X13320Y01619D01*
X12685Y02254D01*
X10145Y02254D02*
X10145Y03524D01*
X10780Y04159D01*
X10145Y02254D02*
X10780Y01619D01*
X12050Y01619D01*
X20305Y02254D02*
X20305Y03524D01*
X05093Y12189D02*
X05093Y13554D01*
D14*
X17757Y05429D02*
X12235Y05429D01*
X12235Y07432D01*
X11820Y07432D01*
X11820Y09406D01*
X12235Y09406D01*
X12235Y11425D01*
X17757Y11425D01*
X17757Y09762D01*
X17875Y09644D01*
X17875Y07224D01*
X17757Y07106D01*
X17757Y05429D01*
X12280Y11187D02*
X13927Y11187D01*
X13927Y11083D01*
X16079Y11083D01*
X16079Y11365D01*
X16124Y11187D02*
X17697Y11187D01*
X13927Y11187D02*
X13927Y11380D01*
X12280Y05666D02*
X13927Y05666D01*
X13927Y05770D01*
X16079Y05770D01*
X16079Y05488D01*
X16124Y05666D02*
X17697Y05666D01*
X13927Y05666D02*
X13927Y05473D01*
X13720Y08427D02*
X13722Y08498D01*
X13728Y08569D01*
X13738Y08639D01*
X13751Y08708D01*
X13769Y08777D01*
X13790Y08845D01*
X13815Y08911D01*
X13844Y08976D01*
X13876Y09039D01*
X13912Y09101D01*
X13951Y09160D01*
X13994Y09217D01*
X14039Y09271D01*
X14087Y09323D01*
X14139Y09372D01*
X14193Y09418D01*
X14249Y09461D01*
X14307Y09501D01*
X14368Y09538D01*
X14431Y09571D01*
X14495Y09601D01*
X14561Y09627D01*
X14629Y09649D01*
X14697Y09668D01*
X14767Y09682D01*
X14837Y09693D01*
X14907Y09700D01*
X14978Y09703D01*
X15049Y09702D01*
X15120Y09697D01*
X15190Y09688D01*
X15260Y09675D01*
X15329Y09659D01*
X15397Y09638D01*
X15464Y09614D01*
X15529Y09586D01*
X15593Y09555D01*
X15654Y09520D01*
X15714Y09482D01*
X15772Y09440D01*
X15827Y09396D01*
X15879Y09348D01*
X15929Y09297D01*
X15976Y09244D01*
X16020Y09188D01*
X16061Y09130D01*
X16098Y09070D01*
X16132Y09008D01*
X16163Y08944D01*
X16190Y08878D01*
X16213Y08811D01*
X16232Y08743D01*
X16248Y08674D01*
X16260Y08604D01*
X16268Y08533D01*
X16272Y08462D01*
X16272Y08392D01*
X16268Y08321D01*
X16260Y08250D01*
X16248Y08180D01*
X16232Y08111D01*
X16213Y08043D01*
X16190Y07976D01*
X16163Y07910D01*
X16132Y07846D01*
X16098Y07784D01*
X16061Y07724D01*
X16020Y07666D01*
X15976Y07610D01*
X15929Y07557D01*
X15879Y07506D01*
X15827Y07458D01*
X15772Y07414D01*
X15714Y07372D01*
X15654Y07334D01*
X15593Y07299D01*
X15529Y07268D01*
X15464Y07240D01*
X15397Y07216D01*
X15329Y07195D01*
X15260Y07179D01*
X15190Y07166D01*
X15120Y07157D01*
X15049Y07152D01*
X14978Y07151D01*
X14907Y07154D01*
X14837Y07161D01*
X14767Y07172D01*
X14697Y07186D01*
X14629Y07205D01*
X14561Y07227D01*
X14495Y07253D01*
X14431Y07283D01*
X14368Y07316D01*
X14307Y07353D01*
X14249Y07393D01*
X14193Y07436D01*
X14139Y07482D01*
X14087Y07531D01*
X14039Y07583D01*
X13994Y07637D01*
X13951Y07694D01*
X13912Y07753D01*
X13876Y07815D01*
X13844Y07878D01*
X13815Y07943D01*
X13790Y08009D01*
X13769Y08077D01*
X13751Y08146D01*
X13738Y08215D01*
X13728Y08285D01*
X13722Y08356D01*
X13720Y08427D01*
X13349Y08427D02*
X13351Y08508D01*
X13357Y08588D01*
X13367Y08669D01*
X13381Y08748D01*
X13398Y08827D01*
X13420Y08905D01*
X13445Y08982D01*
X13474Y09057D01*
X13507Y09131D01*
X13543Y09203D01*
X13583Y09274D01*
X13627Y09342D01*
X13673Y09408D01*
X13723Y09472D01*
X13776Y09533D01*
X13831Y09592D01*
X13890Y09647D01*
X13951Y09700D01*
X14015Y09750D01*
X14081Y09796D01*
X14149Y09840D01*
X14220Y09880D01*
X14292Y09916D01*
X14366Y09949D01*
X14441Y09978D01*
X14518Y10003D01*
X14596Y10025D01*
X14675Y10042D01*
X14754Y10056D01*
X14835Y10066D01*
X14915Y10072D01*
X14996Y10074D01*
X15077Y10072D01*
X15157Y10066D01*
X15238Y10056D01*
X15317Y10042D01*
X15396Y10025D01*
X15474Y10003D01*
X15551Y09978D01*
X15626Y09949D01*
X15700Y09916D01*
X15772Y09880D01*
X15843Y09840D01*
X15911Y09796D01*
X15977Y09750D01*
X16041Y09700D01*
X16102Y09647D01*
X16161Y09592D01*
X16216Y09533D01*
X16269Y09472D01*
X16319Y09408D01*
X16365Y09342D01*
X16409Y09274D01*
X16449Y09203D01*
X16485Y09131D01*
X16518Y09057D01*
X16547Y08982D01*
X16572Y08905D01*
X16594Y08827D01*
X16611Y08748D01*
X16625Y08669D01*
X16635Y08588D01*
X16641Y08508D01*
X16643Y08427D01*
X16641Y08346D01*
X16635Y08266D01*
X16625Y08185D01*
X16611Y08106D01*
X16594Y08027D01*
X16572Y07949D01*
X16547Y07872D01*
X16518Y07797D01*
X16485Y07723D01*
X16449Y07651D01*
X16409Y07580D01*
X16365Y07512D01*
X16319Y07446D01*
X16269Y07382D01*
X16216Y07321D01*
X16161Y07262D01*
X16102Y07207D01*
X16041Y07154D01*
X15977Y07104D01*
X15911Y07058D01*
X15843Y07014D01*
X15772Y06974D01*
X15700Y06938D01*
X15626Y06905D01*
X15551Y06876D01*
X15474Y06851D01*
X15396Y06829D01*
X15317Y06812D01*
X15238Y06798D01*
X15157Y06788D01*
X15077Y06782D01*
X14996Y06780D01*
X14915Y06782D01*
X14835Y06788D01*
X14754Y06798D01*
X14675Y06812D01*
X14596Y06829D01*
X14518Y06851D01*
X14441Y06876D01*
X14366Y06905D01*
X14292Y06938D01*
X14220Y06974D01*
X14149Y07014D01*
X14081Y07058D01*
X14015Y07104D01*
X13951Y07154D01*
X13890Y07207D01*
X13831Y07262D01*
X13776Y07321D01*
X13723Y07382D01*
X13673Y07446D01*
X13627Y07512D01*
X13583Y07580D01*
X13543Y07651D01*
X13507Y07723D01*
X13474Y07797D01*
X13445Y07872D01*
X13420Y07949D01*
X13398Y08027D01*
X13381Y08106D01*
X13367Y08185D01*
X13357Y08266D01*
X13351Y08346D01*
X13349Y08427D01*
D15*
X18046Y06371D03*
D16*
X18053Y10475D03*
D17*
X11939Y06371D03*
D18*
X11738Y08419D03*
D19*
X11946Y10467D03*
M02*
