%
M48
METRIC,TZ,000.000
T01C0.600000
T02C0.609600
T03C1.016000
T04C2.000000
%
T01
X3981Y2181
T02
X12269Y5267
X17126Y11097
X12412Y7239
X7554Y6268
X16884Y6268
X23127Y11811
X12726Y12083
X16926Y9925
X9154Y10840
T03
X24377Y5586
X21837Y5586
X24377Y8126
X21837Y8126
X24377Y10666
X21837Y10666
X11592Y13659
X14132Y13659
X16672Y13659
X19212Y13659
X11415Y2889
X13955Y2889
X16495Y2889
X19035Y2889
T04
X2581Y13581
X23581Y13581
X23781Y2181
M30
