%
M48
METRIC,TZ,000.000
T01C0.330200
T02C1.016000
T03C2.000000
%
T01
X17060Y11814
X25423Y8113
X9078Y15471
X9535Y14252
X14412Y11966
T02
X24377Y10141
X21837Y10141
X24377Y12681
X21837Y12681
X24377Y15221
X21837Y15221
X11592Y18214
X14132Y18214
X16672Y18214
X19212Y18214
X11415Y7445
X13955Y7445
X16495Y7445
X19035Y7445
T03
X2581Y18136
X23581Y18136
X23781Y6736
M30
