G75*
%MOMM*%
%OFA0B0*%
%FSLAX33Y33*%
%IPPOS*%
%LPD*%
%AMOC8*
5,1,8,0,0,1.08239X$1,22.5*
%
%ADD10R,1.000X4.600*%
%ADD11R,1.600X3.400*%
%ADD12C,1.880*%
%ADD13R,1.600X1.400*%
%ADD14R,1.200X1.400*%
%ADD15C,0.254*%
%ADD16C,0.965*%
%ADD17C,0.956*%
D10*
X06111Y08212D03*
X04111Y08212D03*
D11*
X08511Y03012D03*
X01711Y03012D03*
D12*
X24377Y05586D03*
X21837Y05586D03*
X24377Y08126D03*
X21837Y08126D03*
X24377Y10666D03*
X21837Y10666D03*
X11592Y13659D03*
X14132Y13659D03*
X16672Y13659D03*
X19212Y13659D03*
X11415Y02889D03*
X13955Y02889D03*
X16495Y02889D03*
X19035Y02889D03*
D13*
X19196Y10677D03*
X10796Y10677D03*
X10796Y08427D03*
X10796Y06177D03*
X19196Y06177D03*
D14*
X08993Y12871D03*
X05993Y12871D03*
D15*
X12269Y05267D02*
X16469Y05267D01*
X16469Y03067D01*
X16495Y02889D01*
X03981Y02181D02*
X06781Y02181D01*
X06781Y00981D01*
X17126Y00981D01*
X19035Y02889D01*
X17126Y11097D02*
X16469Y11097D01*
X12412Y07239D01*
X07554Y06268D02*
X10754Y06268D01*
X10796Y06177D01*
X10983Y06268D02*
X16884Y06268D01*
X18984Y06268D01*
X19196Y06177D01*
X10983Y06268D02*
X10796Y06177D01*
X16698Y13583D02*
X17384Y13583D01*
X18555Y11811D01*
X23127Y11811D01*
X16698Y13583D02*
X16672Y13659D01*
X05954Y08325D02*
X05954Y09925D01*
X05954Y12668D01*
X05993Y12871D01*
X05954Y08325D02*
X06111Y08212D01*
X21727Y10840D02*
X19212Y10840D01*
X19196Y10677D01*
X21727Y10840D02*
X21837Y10666D01*
X14155Y13611D02*
X12726Y12083D01*
X11383Y10640D01*
X10796Y10677D01*
X14155Y13611D02*
X14132Y13659D01*
X18984Y10840D02*
X17612Y12211D01*
X15555Y12211D01*
X14183Y13583D01*
X18984Y10840D02*
X19196Y10677D01*
X14183Y13583D02*
X14132Y13659D01*
X05954Y09925D02*
X10068Y09925D01*
X10754Y10611D01*
X05954Y09925D02*
X06111Y08212D01*
X10754Y10611D02*
X10796Y10677D01*
X21727Y05810D02*
X17612Y09925D01*
X16926Y09925D01*
X21727Y05810D02*
X21837Y05586D01*
X04125Y08325D02*
X04125Y12668D01*
X05039Y13583D01*
X05039Y13811D01*
X05268Y14040D01*
X11211Y14040D01*
X11592Y13659D01*
X04125Y08325D02*
X04111Y08212D01*
X09154Y10840D02*
X09154Y12668D01*
X08993Y12871D01*
D16*
X12269Y05267D03*
X17126Y11097D03*
X12412Y07239D03*
X07554Y06268D03*
X16884Y06268D03*
X23127Y11811D03*
X12726Y12083D03*
X16926Y09925D03*
X09154Y10840D03*
D17*
X03981Y02181D03*
M02*
