G75*
%MOMM*%
%OFA0B0*%
%FSLAX33Y33*%
%IPPOS*%
%LPD*%
%AMOC8*
5,1,8,0,0,1.08239X$1,22.5*
%
%ADD10C,0.025*%
%ADD11C,0.203*%
%ADD12C,0.127*%
%ADD13R,0.200X0.200*%
%ADD14C,0.152*%
%ADD15C,0.076*%
D10*
X19088Y07295D02*
X18834Y07295D01*
X18834Y07105D01*
X18961Y07168D01*
X19025Y07168D01*
X19088Y07105D01*
X19088Y06978D01*
X19025Y06914D01*
X18898Y06914D01*
X18834Y06978D01*
X19208Y07295D02*
X19208Y07041D01*
X19335Y06914D01*
X19463Y07041D01*
X19463Y07295D01*
X19957Y07295D02*
X19957Y06914D01*
X20710Y07232D02*
X20646Y07295D01*
X20519Y07295D01*
X20456Y07232D01*
X20456Y06978D01*
X20519Y06914D01*
X20646Y06914D01*
X20710Y06978D01*
X20710Y07105D01*
X20583Y07105D01*
X20830Y06914D02*
X20830Y07295D01*
X21084Y06914D01*
X21084Y07295D01*
X21204Y07295D02*
X21204Y06914D01*
X21395Y06914D01*
X21458Y06978D01*
X21458Y07232D01*
X21395Y07295D01*
X21204Y07295D01*
X21952Y07295D02*
X21952Y06914D01*
X22451Y06914D02*
X22451Y07295D01*
X22642Y07295D01*
X22706Y07232D01*
X22706Y07105D01*
X22642Y07041D01*
X22451Y07041D01*
X22579Y07041D02*
X22706Y06914D01*
X23080Y07232D02*
X23016Y07295D01*
X22889Y07295D01*
X22826Y07232D01*
X22826Y07168D01*
X22889Y07105D01*
X23016Y07105D01*
X23080Y07041D01*
X23080Y06978D01*
X23016Y06914D01*
X22889Y06914D01*
X22826Y06978D01*
X23327Y06914D02*
X23327Y07295D01*
X23200Y07295D02*
X23454Y07295D01*
X23948Y07295D02*
X23948Y06914D01*
X24638Y06914D02*
X24638Y07295D01*
X24447Y07105D01*
X24701Y07105D01*
X20104Y18408D02*
X20104Y18662D01*
X20168Y18725D01*
X20295Y18725D01*
X20358Y18662D01*
X20358Y18408D01*
X20295Y18344D01*
X20168Y18344D01*
X20104Y18408D01*
X20358Y18662D01*
X20853Y18725D02*
X20853Y18344D01*
X21351Y18598D02*
X21479Y18725D01*
X21479Y18344D01*
X21606Y18344D02*
X21351Y18344D01*
X22100Y18344D02*
X22100Y18725D01*
X22853Y18344D02*
X22599Y18344D01*
X22853Y18598D01*
X22853Y18662D01*
X22789Y18725D01*
X22662Y18725D01*
X22599Y18662D01*
X23347Y18725D02*
X23347Y18344D01*
X23846Y18662D02*
X23910Y18725D01*
X24037Y18725D01*
X24100Y18662D01*
X24100Y18598D01*
X24037Y18535D01*
X23973Y18535D01*
X24037Y18535D02*
X24100Y18471D01*
X24100Y18408D01*
X24037Y18344D01*
X23910Y18344D01*
X23846Y18408D01*
X20079Y18979D02*
X19799Y18979D01*
X19892Y19072D01*
X19799Y19166D01*
X20079Y19166D01*
X19799Y19400D02*
X19799Y19306D01*
X19846Y19260D01*
X20032Y19260D01*
X20079Y19306D01*
X20079Y19400D01*
X20032Y19446D01*
X19846Y19446D01*
X19799Y19400D01*
X19846Y19727D02*
X19799Y19680D01*
X19799Y19587D01*
X19846Y19540D01*
X19892Y19540D01*
X19939Y19587D01*
X19939Y19680D01*
X19985Y19727D01*
X20032Y19727D01*
X20079Y19680D01*
X20079Y19587D01*
X20032Y19540D01*
X20079Y19821D02*
X20079Y19914D01*
X20079Y19868D02*
X19799Y19868D01*
X19799Y19914D02*
X19799Y19821D01*
X21349Y18979D02*
X21069Y18979D01*
X21162Y19072D01*
X21069Y19166D01*
X21349Y19166D01*
X21349Y19260D02*
X21349Y19353D01*
X21349Y19306D02*
X21069Y19306D01*
X21069Y19260D02*
X21069Y19353D01*
X21116Y19633D02*
X21069Y19587D01*
X21069Y19493D01*
X21116Y19447D01*
X21162Y19447D01*
X21209Y19493D01*
X21209Y19587D01*
X21255Y19633D01*
X21302Y19633D01*
X21349Y19587D01*
X21349Y19493D01*
X21302Y19447D01*
X21069Y19867D02*
X21069Y19774D01*
X21116Y19728D01*
X21302Y19728D01*
X21349Y19774D01*
X21349Y19867D01*
X21302Y19914D01*
X21116Y19914D01*
X21069Y19867D01*
X22386Y19166D02*
X22339Y19119D01*
X22339Y19026D01*
X22386Y18979D01*
X22432Y18979D01*
X22479Y19026D01*
X22479Y19119D01*
X22525Y19166D01*
X22572Y19166D01*
X22619Y19119D01*
X22619Y19026D01*
X22572Y18979D01*
X22386Y19446D02*
X22339Y19400D01*
X22339Y19306D01*
X22386Y19260D01*
X22572Y19260D01*
X22619Y19306D01*
X22619Y19400D01*
X22572Y19446D01*
X22619Y19540D02*
X22339Y19540D01*
X22525Y19540D02*
X22339Y19727D01*
X22479Y19587D02*
X22619Y19727D01*
X24784Y07549D02*
X25064Y07549D01*
X25064Y07736D01*
X24784Y08016D02*
X24784Y07830D01*
X25064Y07830D01*
X25064Y08016D01*
X24924Y07923D02*
X24924Y07830D01*
X24784Y08110D02*
X25064Y08110D01*
X25064Y08250D01*
X25017Y08297D01*
X24831Y08297D01*
X24784Y08250D01*
X24784Y08110D01*
D11*
X14501Y10886D02*
X07901Y10886D01*
X07901Y16886D02*
X14501Y16886D01*
X14501Y15086D02*
X14501Y12686D01*
X07901Y12686D02*
X07901Y15086D01*
X09698Y13886D02*
X09700Y13963D01*
X09706Y14041D01*
X09716Y14117D01*
X09730Y14193D01*
X09748Y14269D01*
X09769Y14343D01*
X09795Y14416D01*
X09824Y14488D01*
X09857Y14558D01*
X09893Y14626D01*
X09933Y14693D01*
X09976Y14757D01*
X10022Y14819D01*
X10072Y14878D01*
X10125Y14935D01*
X10180Y14989D01*
X10238Y15040D01*
X10299Y15088D01*
X10362Y15133D01*
X10427Y15175D01*
X10495Y15213D01*
X10564Y15247D01*
X10635Y15278D01*
X10707Y15306D01*
X10781Y15329D01*
X10856Y15349D01*
X10932Y15365D01*
X11008Y15377D01*
X11085Y15385D01*
X11162Y15389D01*
X11240Y15389D01*
X11317Y15385D01*
X11394Y15377D01*
X11470Y15365D01*
X11546Y15349D01*
X11621Y15329D01*
X11695Y15306D01*
X11767Y15278D01*
X11838Y15247D01*
X11907Y15213D01*
X11975Y15175D01*
X12040Y15133D01*
X12103Y15088D01*
X12164Y15040D01*
X12222Y14989D01*
X12277Y14935D01*
X12330Y14878D01*
X12380Y14819D01*
X12426Y14757D01*
X12469Y14693D01*
X12509Y14626D01*
X12545Y14558D01*
X12578Y14488D01*
X12607Y14416D01*
X12633Y14343D01*
X12654Y14269D01*
X12672Y14193D01*
X12686Y14117D01*
X12696Y14041D01*
X12702Y13963D01*
X12704Y13886D01*
X12702Y13809D01*
X12696Y13731D01*
X12686Y13655D01*
X12672Y13579D01*
X12654Y13503D01*
X12633Y13429D01*
X12607Y13356D01*
X12578Y13284D01*
X12545Y13214D01*
X12509Y13146D01*
X12469Y13079D01*
X12426Y13015D01*
X12380Y12953D01*
X12330Y12894D01*
X12277Y12837D01*
X12222Y12783D01*
X12164Y12732D01*
X12103Y12684D01*
X12040Y12639D01*
X11975Y12597D01*
X11907Y12559D01*
X11838Y12525D01*
X11767Y12494D01*
X11695Y12466D01*
X11621Y12443D01*
X11546Y12423D01*
X11470Y12407D01*
X11394Y12395D01*
X11317Y12387D01*
X11240Y12383D01*
X11162Y12383D01*
X11085Y12387D01*
X11008Y12395D01*
X10932Y12407D01*
X10856Y12423D01*
X10781Y12443D01*
X10707Y12466D01*
X10635Y12494D01*
X10564Y12525D01*
X10495Y12559D01*
X10427Y12597D01*
X10362Y12639D01*
X10299Y12684D01*
X10238Y12732D01*
X10180Y12783D01*
X10125Y12837D01*
X10072Y12894D01*
X10022Y12953D01*
X09976Y13015D01*
X09933Y13079D01*
X09893Y13146D01*
X09857Y13214D01*
X09824Y13284D01*
X09795Y13356D01*
X09769Y13429D01*
X09748Y13503D01*
X09730Y13579D01*
X09716Y13655D01*
X09706Y13731D01*
X09700Y13809D01*
X09698Y13886D01*
X10201Y13886D02*
X10203Y13949D01*
X10209Y14011D01*
X10219Y14073D01*
X10232Y14135D01*
X10250Y14195D01*
X10271Y14254D01*
X10296Y14312D01*
X10325Y14368D01*
X10357Y14422D01*
X10392Y14474D01*
X10430Y14523D01*
X10472Y14571D01*
X10516Y14615D01*
X10564Y14657D01*
X10613Y14695D01*
X10665Y14730D01*
X10719Y14762D01*
X10775Y14791D01*
X10833Y14816D01*
X10892Y14837D01*
X10952Y14855D01*
X11014Y14868D01*
X11076Y14878D01*
X11138Y14884D01*
X11201Y14886D01*
X11264Y14884D01*
X11326Y14878D01*
X11388Y14868D01*
X11450Y14855D01*
X11510Y14837D01*
X11569Y14816D01*
X11627Y14791D01*
X11683Y14762D01*
X11737Y14730D01*
X11789Y14695D01*
X11838Y14657D01*
X11886Y14615D01*
X11930Y14571D01*
X11972Y14523D01*
X12010Y14474D01*
X12045Y14422D01*
X12077Y14368D01*
X12106Y14312D01*
X12131Y14254D01*
X12152Y14195D01*
X12170Y14135D01*
X12183Y14073D01*
X12193Y14011D01*
X12199Y13949D01*
X12201Y13886D01*
X12199Y13823D01*
X12193Y13761D01*
X12183Y13699D01*
X12170Y13637D01*
X12152Y13577D01*
X12131Y13518D01*
X12106Y13460D01*
X12077Y13404D01*
X12045Y13350D01*
X12010Y13298D01*
X11972Y13249D01*
X11930Y13201D01*
X11886Y13157D01*
X11838Y13115D01*
X11789Y13077D01*
X11737Y13042D01*
X11683Y13010D01*
X11627Y12981D01*
X11569Y12956D01*
X11510Y12935D01*
X11450Y12917D01*
X11388Y12904D01*
X11326Y12894D01*
X11264Y12888D01*
X11201Y12886D01*
X11138Y12888D01*
X11076Y12894D01*
X11014Y12904D01*
X10952Y12917D01*
X10892Y12935D01*
X10833Y12956D01*
X10775Y12981D01*
X10719Y13010D01*
X10665Y13042D01*
X10613Y13077D01*
X10564Y13115D01*
X10516Y13157D01*
X10472Y13201D01*
X10430Y13249D01*
X10392Y13298D01*
X10357Y13350D01*
X10325Y13404D01*
X10296Y13460D01*
X10271Y13518D01*
X10250Y13577D01*
X10232Y13637D01*
X10219Y13699D01*
X10209Y13761D01*
X10203Y13823D01*
X10201Y13886D01*
X29616Y09441D02*
X30251Y10076D01*
X30251Y11346D02*
X29616Y11981D01*
X30251Y12616D01*
X30251Y13886D02*
X29616Y14521D01*
X30251Y15156D01*
X30251Y16426D02*
X29616Y17061D01*
X29616Y09441D02*
X25806Y09441D01*
X25171Y10076D01*
X25171Y11346D01*
X25806Y11981D01*
X25171Y12616D01*
X25171Y13886D01*
X25806Y14521D01*
X25171Y15156D01*
X25171Y16426D01*
X25806Y17061D01*
X25806Y11981D02*
X29616Y11981D01*
X29616Y14521D02*
X25806Y14521D01*
X25806Y17061D02*
X29616Y17061D01*
X30251Y16426D02*
X30251Y15156D01*
X30251Y13886D02*
X30251Y12616D01*
X30251Y11346D02*
X30251Y10076D01*
X30586Y10076D02*
X30586Y11346D01*
X16281Y08171D02*
X17551Y08171D01*
X18186Y07536D01*
X18186Y06266D02*
X17551Y05631D01*
X13106Y07536D02*
X13741Y08171D01*
X15011Y08171D01*
X15646Y07536D01*
X15646Y06266D02*
X15011Y05631D01*
X13741Y05631D01*
X13106Y06266D01*
X15646Y07536D02*
X16281Y08171D01*
X15646Y06266D02*
X16281Y05631D01*
X17551Y05631D01*
X08661Y08171D02*
X09931Y08171D01*
X10566Y07536D01*
X10566Y06266D02*
X09931Y05631D01*
X10566Y07536D02*
X11201Y08171D01*
X12471Y08171D01*
X13106Y07536D01*
X13106Y06266D02*
X12471Y05631D01*
X11201Y05631D01*
X10566Y06266D01*
X08026Y06266D02*
X08026Y07536D01*
X08661Y08171D01*
X08026Y06266D02*
X08661Y05631D01*
X09931Y05631D01*
X18186Y06266D02*
X18186Y07536D01*
X16916Y20236D02*
X18186Y20236D01*
X18821Y19601D01*
X18821Y18331D02*
X18186Y17696D01*
X13741Y19601D02*
X14376Y20236D01*
X15646Y20236D01*
X16281Y19601D01*
X16281Y18331D02*
X15646Y17696D01*
X14376Y17696D01*
X13741Y18331D01*
X16281Y19601D02*
X16916Y20236D01*
X16281Y18331D02*
X16916Y17696D01*
X18186Y17696D01*
X09296Y20236D02*
X10566Y20236D01*
X11201Y19601D01*
X11201Y18331D02*
X10566Y17696D01*
X11201Y19601D02*
X11836Y20236D01*
X13106Y20236D01*
X13741Y19601D01*
X13741Y18331D02*
X13106Y17696D01*
X11836Y17696D01*
X11201Y18331D01*
X08661Y18331D02*
X08661Y19601D01*
X09296Y20236D01*
X08661Y18331D02*
X09296Y17696D01*
X10566Y17696D01*
X18821Y18331D02*
X18821Y19601D01*
D12*
X24854Y09666D02*
X24854Y09505D01*
X24854Y09585D02*
X24371Y09585D01*
X24371Y09505D02*
X24371Y09666D01*
X24451Y10201D02*
X24371Y10121D01*
X24371Y09960D01*
X24451Y09879D01*
X24773Y09879D01*
X24854Y09960D01*
X24854Y10121D01*
X24773Y10201D01*
X24451Y10762D02*
X24371Y10682D01*
X24371Y10521D01*
X24451Y10440D01*
X24532Y10440D01*
X24612Y10521D01*
X24612Y10682D01*
X24693Y10762D01*
X24773Y10762D01*
X24854Y10682D01*
X24854Y10521D01*
X24773Y10440D01*
X24854Y11002D02*
X24371Y11002D01*
X24371Y11243D01*
X24451Y11324D01*
X24612Y11324D01*
X24693Y11243D01*
X24693Y11002D01*
D13*
X13006Y09441D03*
D14*
X21234Y10559D02*
X21488Y10559D01*
X22504Y10559D02*
X22758Y10559D01*
X23774Y10559D02*
X24028Y10559D01*
X22758Y15944D02*
X22504Y15944D01*
X21488Y15944D02*
X21234Y15944D01*
X20218Y15944D02*
X19964Y15944D01*
X18948Y15944D02*
X18694Y15944D01*
X24028Y10559D02*
X24028Y15944D01*
X23774Y15944D01*
X18694Y15944D02*
X18694Y13556D01*
X18694Y12947D01*
X18694Y10559D01*
X18948Y10559D01*
X19964Y10559D02*
X20218Y10559D01*
X18694Y12946D02*
X18728Y12948D01*
X18762Y12954D01*
X18795Y12963D01*
X18826Y12976D01*
X18856Y12993D01*
X18884Y13013D01*
X18910Y13035D01*
X18932Y13061D01*
X18952Y13089D01*
X18969Y13119D01*
X18982Y13150D01*
X18991Y13183D01*
X18997Y13217D01*
X18999Y13251D01*
X18997Y13285D01*
X18991Y13319D01*
X18982Y13352D01*
X18969Y13383D01*
X18952Y13413D01*
X18932Y13441D01*
X18910Y13467D01*
X18884Y13489D01*
X18856Y13509D01*
X18826Y13526D01*
X18795Y13539D01*
X18762Y13548D01*
X18728Y13554D01*
X18694Y13556D01*
X18728Y13554D01*
X18762Y13548D01*
X18795Y13539D01*
X18826Y13526D01*
X18856Y13509D01*
X18884Y13489D01*
X18910Y13467D01*
X18932Y13441D01*
X18952Y13413D01*
X18969Y13383D01*
X18982Y13352D01*
X18991Y13319D01*
X18997Y13285D01*
X18999Y13251D01*
X18997Y13217D01*
X18991Y13183D01*
X18982Y13150D01*
X18969Y13119D01*
X18952Y13089D01*
X18932Y13061D01*
X18910Y13035D01*
X18884Y13013D01*
X18856Y12993D01*
X18826Y12976D01*
X18795Y12963D01*
X18762Y12954D01*
X18728Y12948D01*
X18694Y12946D01*
X17018Y08730D02*
X16815Y08730D01*
X16815Y10153D02*
X17018Y10153D01*
X09398Y10153D02*
X09195Y10153D01*
X09195Y08730D02*
X09398Y08730D01*
D15*
X18016Y08743D02*
X18813Y09539D01*
X18813Y08743D02*
X18016Y09539D01*
X18414Y09539D02*
X18414Y08743D01*
X18016Y09141D02*
X18813Y09141D01*
X18813Y09539D02*
X18016Y08743D01*
X18016Y09539D02*
X18813Y08743D01*
X18414Y08743D02*
X18414Y09539D01*
X18016Y09141D02*
X18813Y09141D01*
M02*
