G75*
%MOMM*%
%OFA0B0*%
%FSLAX33Y33*%
%IPPOS*%
%LPD*%
%AMOC8*
5,1,8,0,0,1.08239X$1,22.5*
%
%ADD10C,0.051*%
%ADD11C,0.025*%
%ADD12C,0.076*%
%ADD13C,0.203*%
%ADD14C,0.152*%
%ADD15C,0.102*%
%ADD16R,0.200X0.200*%
D10*
X03362Y10712D02*
X03456Y10805D01*
X03456Y10898D01*
X03362Y10991D01*
X02896Y10991D01*
X02896Y10898D02*
X02896Y11085D01*
X02990Y11646D02*
X02896Y11553D01*
X02896Y11366D01*
X02990Y11273D01*
X03083Y11273D01*
X03176Y11366D01*
X03176Y11553D01*
X03269Y11646D01*
X03362Y11646D01*
X03456Y11553D01*
X03456Y11366D01*
X03362Y11273D01*
X03456Y12021D02*
X02896Y12021D01*
X02896Y12207D02*
X02896Y11834D01*
X03176Y12396D02*
X03176Y12769D01*
X02896Y13330D02*
X02896Y12957D01*
X03176Y12957D01*
X03083Y13143D01*
X03083Y13237D01*
X03176Y13330D01*
X03362Y13330D01*
X03456Y13237D01*
X03456Y13050D01*
X03362Y12957D01*
X02896Y13518D02*
X03269Y13518D01*
X03456Y13705D01*
X03269Y13891D01*
X02896Y13891D01*
X14029Y11228D02*
X13936Y11321D01*
X13750Y11321D01*
X13656Y11228D01*
X13656Y11135D01*
X13750Y11041D01*
X13936Y11041D01*
X14029Y10948D01*
X14029Y10855D01*
X13936Y10762D01*
X13750Y10762D01*
X13656Y10855D01*
X14218Y11135D02*
X14218Y10855D01*
X14311Y10762D01*
X14404Y10855D01*
X14497Y10762D01*
X14591Y10855D01*
X14591Y11135D01*
X14779Y11135D02*
X14872Y11135D01*
X14872Y10762D01*
X14779Y10762D02*
X14965Y10762D01*
X14872Y11321D02*
X14872Y11414D01*
X15246Y11228D02*
X15246Y10855D01*
X15340Y10762D01*
X15340Y11135D02*
X15153Y11135D01*
X15900Y11135D02*
X15621Y11135D01*
X15527Y11041D01*
X15527Y10855D01*
X15621Y10762D01*
X15900Y10762D01*
X16089Y10762D02*
X16089Y11321D01*
X16089Y11041D02*
X16182Y11135D01*
X16368Y11135D01*
X16462Y11041D01*
X16462Y10762D01*
X22356Y08012D02*
X22543Y08012D01*
X22450Y08012D02*
X22450Y08571D01*
X22543Y08571D02*
X22356Y08571D01*
X23103Y08478D02*
X23010Y08571D01*
X22824Y08571D01*
X22731Y08478D01*
X22731Y08105D01*
X22824Y08012D01*
X23010Y08012D01*
X23103Y08105D01*
X23665Y08478D02*
X23572Y08571D01*
X23385Y08571D01*
X23292Y08478D01*
X23292Y08385D01*
X23385Y08291D01*
X23572Y08291D01*
X23665Y08198D01*
X23665Y08105D01*
X23572Y08012D01*
X23385Y08012D01*
X23292Y08105D01*
X23853Y08012D02*
X23853Y08571D01*
X24133Y08571D01*
X24226Y08478D01*
X24226Y08291D01*
X24133Y08198D01*
X23853Y08198D01*
X11379Y16721D02*
X11006Y16721D01*
X11006Y16441D01*
X11193Y16535D01*
X11286Y16535D01*
X11379Y16441D01*
X11379Y16255D01*
X11286Y16162D01*
X11100Y16162D01*
X11006Y16255D01*
X11568Y16721D02*
X11568Y16348D01*
X11754Y16162D01*
X11941Y16348D01*
X11941Y16721D01*
X13779Y16628D02*
X13686Y16721D01*
X13500Y16721D01*
X13406Y16628D01*
X13406Y16255D01*
X13500Y16162D01*
X13686Y16162D01*
X13779Y16255D01*
X13779Y16441D01*
X13593Y16441D01*
X13968Y16162D02*
X13968Y16721D01*
X14341Y16162D01*
X14341Y16721D01*
X14529Y16721D02*
X14529Y16162D01*
X14809Y16162D01*
X14902Y16255D01*
X14902Y16628D01*
X14809Y16721D01*
X14529Y16721D01*
X16006Y16162D02*
X16006Y16721D01*
X16286Y16721D01*
X16379Y16628D01*
X16379Y16441D01*
X16286Y16348D01*
X16006Y16348D01*
X16193Y16348D02*
X16379Y16162D01*
X16941Y16628D02*
X16847Y16721D01*
X16661Y16721D01*
X16568Y16628D01*
X16568Y16535D01*
X16661Y16441D01*
X16847Y16441D01*
X16941Y16348D01*
X16941Y16255D01*
X16847Y16162D01*
X16661Y16162D01*
X16568Y16255D01*
X17315Y16162D02*
X17315Y16721D01*
X17129Y16721D02*
X17502Y16721D01*
X18286Y16162D02*
X18286Y16721D01*
X18006Y16441D01*
X18379Y16441D01*
X18568Y16162D02*
X18941Y16721D01*
X19129Y16721D02*
X19129Y16162D01*
X19502Y16162D01*
X20063Y16721D02*
X19690Y16721D01*
X19690Y16162D01*
X20063Y16162D01*
X19877Y16441D02*
X19690Y16441D01*
X20252Y16721D02*
X20252Y16162D01*
X20531Y16162D01*
X20624Y16255D01*
X20624Y16628D01*
X20531Y16721D01*
X20252Y16721D01*
X11206Y05455D02*
X11206Y05828D01*
X11300Y05921D01*
X11486Y05921D01*
X11579Y05828D01*
X11579Y05455D01*
X11486Y05362D01*
X11300Y05362D01*
X11206Y05455D01*
X11579Y05828D01*
X13806Y05735D02*
X13993Y05921D01*
X13993Y05362D01*
X14179Y05362D02*
X13806Y05362D01*
X16779Y05362D02*
X16406Y05362D01*
X16779Y05735D01*
X16779Y05828D01*
X16686Y05921D01*
X16500Y05921D01*
X16406Y05828D01*
X19006Y05828D02*
X19100Y05921D01*
X19286Y05921D01*
X19379Y05828D01*
X19379Y05735D01*
X19286Y05641D01*
X19193Y05641D01*
X19286Y05641D02*
X19379Y05548D01*
X19379Y05455D01*
X19286Y05362D01*
X19100Y05362D01*
X19006Y05455D01*
D11*
X05844Y16786D02*
X05844Y16506D01*
X06030Y16506D01*
X06311Y16786D02*
X06124Y16786D01*
X06124Y16506D01*
X06311Y16506D01*
X06218Y16646D02*
X06124Y16646D01*
X06405Y16786D02*
X06405Y16506D01*
X06545Y16506D01*
X06591Y16553D01*
X06591Y16739D01*
X06545Y16786D01*
X06405Y16786D01*
X10794Y08949D02*
X10794Y09229D01*
X10887Y09136D01*
X10980Y09229D01*
X10980Y08949D01*
X11214Y09229D02*
X11121Y09229D01*
X11074Y09182D01*
X11074Y08996D01*
X11121Y08949D01*
X11214Y08949D01*
X11261Y08996D01*
X11261Y09182D01*
X11214Y09229D01*
X11541Y09182D02*
X11495Y09229D01*
X11402Y09229D01*
X11355Y09182D01*
X11355Y09136D01*
X11402Y09089D01*
X11495Y09089D01*
X11541Y09042D01*
X11541Y08996D01*
X11495Y08949D01*
X11402Y08949D01*
X11355Y08996D01*
X11636Y08949D02*
X11729Y08949D01*
X11682Y08949D02*
X11682Y09229D01*
X11636Y09229D02*
X11729Y09229D01*
X13394Y08949D02*
X13394Y09229D01*
X13487Y09136D01*
X13580Y09229D01*
X13580Y08949D01*
X13674Y08949D02*
X13768Y08949D01*
X13721Y08949D02*
X13721Y09229D01*
X13674Y09229D02*
X13768Y09229D01*
X14048Y09182D02*
X14001Y09229D01*
X13908Y09229D01*
X13861Y09182D01*
X13861Y09136D01*
X13908Y09089D01*
X14001Y09089D01*
X14048Y09042D01*
X14048Y08996D01*
X14001Y08949D01*
X13908Y08949D01*
X13861Y08996D01*
X14282Y09229D02*
X14189Y09229D01*
X14142Y09182D01*
X14142Y08996D01*
X14189Y08949D01*
X14282Y08949D01*
X14329Y08996D01*
X14329Y09182D01*
X14282Y09229D01*
X16380Y09182D02*
X16334Y09229D01*
X16240Y09229D01*
X16194Y09182D01*
X16194Y09136D01*
X16240Y09089D01*
X16334Y09089D01*
X16380Y09042D01*
X16380Y08996D01*
X16334Y08949D01*
X16240Y08949D01*
X16194Y08996D01*
X16661Y09182D02*
X16614Y09229D01*
X16521Y09229D01*
X16474Y09182D01*
X16474Y08996D01*
X16521Y08949D01*
X16614Y08949D01*
X16661Y08996D01*
X16755Y08949D02*
X16755Y09229D01*
X16941Y09229D02*
X16755Y09042D01*
X16802Y09089D02*
X16941Y08949D01*
D12*
X21418Y16781D02*
X22033Y16781D01*
X22156Y16904D01*
X22156Y17149D01*
X22033Y17272D01*
X21418Y17272D01*
X21418Y17529D02*
X22156Y17529D01*
X22156Y17898D01*
X22033Y18021D01*
X21541Y18021D01*
X21418Y17898D01*
X21418Y17529D01*
X21418Y18278D02*
X22156Y18769D01*
X22156Y18278D02*
X21418Y18769D01*
X21541Y19518D02*
X21418Y19395D01*
X21418Y19149D01*
X21541Y19026D01*
X21664Y19026D01*
X21787Y19149D01*
X21787Y19395D01*
X21910Y19518D01*
X22033Y19518D01*
X22156Y19395D01*
X22156Y19149D01*
X22033Y19026D01*
X03719Y18574D02*
X03719Y19202D01*
X04033Y19515D01*
X04346Y19202D01*
X04346Y18574D01*
X04346Y19045D02*
X03719Y19045D01*
X04655Y19202D02*
X04655Y18574D01*
X04655Y18888D02*
X04968Y19202D01*
X05125Y19202D01*
X06061Y19515D02*
X06061Y18574D01*
X05591Y18574D01*
X05434Y18731D01*
X05434Y19045D01*
X05591Y19202D01*
X06061Y19202D01*
X06370Y19202D02*
X06370Y18731D01*
X06526Y18574D01*
X06997Y18574D01*
X06997Y19202D01*
X07305Y19202D02*
X07462Y19202D01*
X07462Y18574D01*
X07305Y18574D02*
X07619Y18574D01*
X07462Y19515D02*
X07462Y19672D01*
X08086Y19358D02*
X08086Y18731D01*
X08242Y18574D01*
X08242Y19202D02*
X07929Y19202D01*
X08553Y18574D02*
X09023Y18574D01*
X09180Y18731D01*
X09023Y18888D01*
X08709Y18888D01*
X08553Y19045D01*
X08709Y19202D01*
X09180Y19202D01*
X09488Y19202D02*
X09488Y18731D01*
X09645Y18574D01*
X10115Y18574D01*
X10115Y19202D02*
X10115Y18418D01*
X09958Y18261D01*
X09802Y18261D01*
D13*
X25012Y08871D02*
X25647Y09506D01*
X25647Y10776D02*
X25012Y11411D01*
X25647Y12046D01*
X25647Y13316D02*
X25012Y13951D01*
X25647Y14586D01*
X25647Y15856D02*
X25012Y16491D01*
X25012Y08871D02*
X21202Y08871D01*
X20567Y09506D01*
X20567Y10776D01*
X21202Y11411D01*
X20567Y12046D01*
X20567Y13316D01*
X21202Y13951D01*
X20567Y14586D01*
X20567Y15856D01*
X21202Y16491D01*
X21202Y11411D02*
X25012Y11411D01*
X25012Y13951D02*
X21202Y13951D01*
X21202Y16491D02*
X25012Y16491D01*
X25647Y15856D02*
X25647Y14586D01*
X25647Y13316D02*
X25647Y12046D01*
X25647Y10776D02*
X25647Y09506D01*
X25982Y09506D02*
X25982Y10776D01*
X18577Y19484D02*
X19847Y19484D01*
X20482Y18849D01*
X20482Y17579D02*
X19847Y16944D01*
X15402Y18849D02*
X16037Y19484D01*
X17307Y19484D01*
X17942Y18849D01*
X17942Y17579D02*
X17307Y16944D01*
X16037Y16944D01*
X15402Y17579D01*
X17942Y18849D02*
X18577Y19484D01*
X17942Y17579D02*
X18577Y16944D01*
X19847Y16944D01*
X10957Y19484D02*
X12227Y19484D01*
X12862Y18849D01*
X12862Y17579D02*
X12227Y16944D01*
X12862Y18849D02*
X13497Y19484D01*
X14767Y19484D01*
X15402Y18849D01*
X15402Y17579D02*
X14767Y16944D01*
X13497Y16944D01*
X12862Y17579D01*
X10322Y17579D02*
X10322Y18849D01*
X10957Y19484D01*
X10322Y17579D02*
X10957Y16944D01*
X12227Y16944D01*
X20482Y17579D02*
X20482Y18849D01*
X18400Y08715D02*
X19670Y08715D01*
X20305Y08080D01*
X20305Y06810D02*
X19670Y06175D01*
X15225Y08080D02*
X15860Y08715D01*
X17130Y08715D01*
X17765Y08080D01*
X17765Y06810D02*
X17130Y06175D01*
X15860Y06175D01*
X15225Y06810D01*
X17765Y08080D02*
X18400Y08715D01*
X17765Y06810D02*
X18400Y06175D01*
X19670Y06175D01*
X10780Y08715D02*
X12050Y08715D01*
X12685Y08080D01*
X12685Y06810D02*
X12050Y06175D01*
X12685Y08080D02*
X13320Y08715D01*
X14590Y08715D01*
X15225Y08080D01*
X15225Y06810D02*
X14590Y06175D01*
X13320Y06175D01*
X12685Y06810D01*
X10145Y06810D02*
X10145Y08080D01*
X10780Y08715D01*
X10145Y06810D02*
X10780Y06175D01*
X12050Y06175D01*
X20305Y06810D02*
X20305Y08080D01*
X18381Y15636D02*
X11781Y15636D01*
X11781Y09636D02*
X18381Y09636D01*
X11781Y11436D02*
X11781Y13836D01*
X18381Y13836D02*
X18381Y11436D01*
X13578Y12636D02*
X13580Y12713D01*
X13586Y12791D01*
X13596Y12867D01*
X13610Y12943D01*
X13628Y13019D01*
X13649Y13093D01*
X13675Y13166D01*
X13704Y13238D01*
X13737Y13308D01*
X13773Y13376D01*
X13813Y13443D01*
X13856Y13507D01*
X13902Y13569D01*
X13952Y13628D01*
X14005Y13685D01*
X14060Y13739D01*
X14118Y13790D01*
X14179Y13838D01*
X14242Y13883D01*
X14307Y13925D01*
X14375Y13963D01*
X14444Y13997D01*
X14515Y14028D01*
X14587Y14056D01*
X14661Y14079D01*
X14736Y14099D01*
X14812Y14115D01*
X14888Y14127D01*
X14965Y14135D01*
X15042Y14139D01*
X15120Y14139D01*
X15197Y14135D01*
X15274Y14127D01*
X15350Y14115D01*
X15426Y14099D01*
X15501Y14079D01*
X15575Y14056D01*
X15647Y14028D01*
X15718Y13997D01*
X15787Y13963D01*
X15855Y13925D01*
X15920Y13883D01*
X15983Y13838D01*
X16044Y13790D01*
X16102Y13739D01*
X16157Y13685D01*
X16210Y13628D01*
X16260Y13569D01*
X16306Y13507D01*
X16349Y13443D01*
X16389Y13376D01*
X16425Y13308D01*
X16458Y13238D01*
X16487Y13166D01*
X16513Y13093D01*
X16534Y13019D01*
X16552Y12943D01*
X16566Y12867D01*
X16576Y12791D01*
X16582Y12713D01*
X16584Y12636D01*
X16582Y12559D01*
X16576Y12481D01*
X16566Y12405D01*
X16552Y12329D01*
X16534Y12253D01*
X16513Y12179D01*
X16487Y12106D01*
X16458Y12034D01*
X16425Y11964D01*
X16389Y11896D01*
X16349Y11829D01*
X16306Y11765D01*
X16260Y11703D01*
X16210Y11644D01*
X16157Y11587D01*
X16102Y11533D01*
X16044Y11482D01*
X15983Y11434D01*
X15920Y11389D01*
X15855Y11347D01*
X15787Y11309D01*
X15718Y11275D01*
X15647Y11244D01*
X15575Y11216D01*
X15501Y11193D01*
X15426Y11173D01*
X15350Y11157D01*
X15274Y11145D01*
X15197Y11137D01*
X15120Y11133D01*
X15042Y11133D01*
X14965Y11137D01*
X14888Y11145D01*
X14812Y11157D01*
X14736Y11173D01*
X14661Y11193D01*
X14587Y11216D01*
X14515Y11244D01*
X14444Y11275D01*
X14375Y11309D01*
X14307Y11347D01*
X14242Y11389D01*
X14179Y11434D01*
X14118Y11482D01*
X14060Y11533D01*
X14005Y11587D01*
X13952Y11644D01*
X13902Y11703D01*
X13856Y11765D01*
X13813Y11829D01*
X13773Y11896D01*
X13737Y11964D01*
X13704Y12034D01*
X13675Y12106D01*
X13649Y12179D01*
X13628Y12253D01*
X13610Y12329D01*
X13596Y12405D01*
X13586Y12481D01*
X13580Y12559D01*
X13578Y12636D01*
X14081Y12636D02*
X14083Y12699D01*
X14089Y12761D01*
X14099Y12823D01*
X14112Y12885D01*
X14130Y12945D01*
X14151Y13004D01*
X14176Y13062D01*
X14205Y13118D01*
X14237Y13172D01*
X14272Y13224D01*
X14310Y13273D01*
X14352Y13321D01*
X14396Y13365D01*
X14444Y13407D01*
X14493Y13445D01*
X14545Y13480D01*
X14599Y13512D01*
X14655Y13541D01*
X14713Y13566D01*
X14772Y13587D01*
X14832Y13605D01*
X14894Y13618D01*
X14956Y13628D01*
X15018Y13634D01*
X15081Y13636D01*
X15144Y13634D01*
X15206Y13628D01*
X15268Y13618D01*
X15330Y13605D01*
X15390Y13587D01*
X15449Y13566D01*
X15507Y13541D01*
X15563Y13512D01*
X15617Y13480D01*
X15669Y13445D01*
X15718Y13407D01*
X15766Y13365D01*
X15810Y13321D01*
X15852Y13273D01*
X15890Y13224D01*
X15925Y13172D01*
X15957Y13118D01*
X15986Y13062D01*
X16011Y13004D01*
X16032Y12945D01*
X16050Y12885D01*
X16063Y12823D01*
X16073Y12761D01*
X16079Y12699D01*
X16081Y12636D01*
X16079Y12573D01*
X16073Y12511D01*
X16063Y12449D01*
X16050Y12387D01*
X16032Y12327D01*
X16011Y12268D01*
X15986Y12210D01*
X15957Y12154D01*
X15925Y12100D01*
X15890Y12048D01*
X15852Y11999D01*
X15810Y11951D01*
X15766Y11907D01*
X15718Y11865D01*
X15669Y11827D01*
X15617Y11792D01*
X15563Y11760D01*
X15507Y11731D01*
X15449Y11706D01*
X15390Y11685D01*
X15330Y11667D01*
X15268Y11654D01*
X15206Y11644D01*
X15144Y11638D01*
X15081Y11636D01*
X15018Y11638D01*
X14956Y11644D01*
X14894Y11654D01*
X14832Y11667D01*
X14772Y11685D01*
X14713Y11706D01*
X14655Y11731D01*
X14599Y11760D01*
X14545Y11792D01*
X14493Y11827D01*
X14444Y11865D01*
X14396Y11907D01*
X14352Y11951D01*
X14310Y11999D01*
X14272Y12048D01*
X14237Y12100D01*
X14205Y12154D01*
X14176Y12210D01*
X14151Y12268D01*
X14130Y12327D01*
X14112Y12387D01*
X14099Y12449D01*
X14089Y12511D01*
X14083Y12573D01*
X14081Y12636D01*
X07331Y05336D02*
X02831Y05336D01*
X01081Y08836D02*
X01081Y12836D01*
X01931Y12836D01*
X01931Y10336D01*
X03331Y10336D01*
X06831Y10336D02*
X08231Y10336D01*
X08231Y12836D01*
X09081Y12836D01*
X09081Y08836D01*
D14*
X11982Y16213D02*
X11982Y16874D01*
X12313Y16874D01*
X12423Y16763D01*
X12423Y16653D01*
X12313Y16543D01*
X12423Y16433D01*
X12423Y16323D01*
X12313Y16213D01*
X11982Y16213D01*
X11982Y16543D02*
X12313Y16543D01*
X12731Y16653D02*
X12951Y16874D01*
X12951Y16213D01*
X12731Y16213D02*
X13171Y16213D01*
X05575Y06182D02*
X05465Y06292D01*
X05245Y06292D01*
X05134Y06182D01*
X05134Y05741D01*
X05245Y05631D01*
X05465Y05631D01*
X05575Y05741D01*
X05883Y05631D02*
X05883Y06292D01*
X06324Y05631D01*
X06324Y06292D01*
X06631Y06072D02*
X06852Y06292D01*
X06852Y05631D01*
X07072Y05631D02*
X06631Y05631D01*
D15*
X02824Y16117D02*
X02824Y14947D01*
X03604Y14947D01*
X04773Y16117D02*
X03994Y16117D01*
X03994Y14947D01*
X04773Y14947D01*
X04383Y15532D02*
X03994Y15532D01*
X05163Y16117D02*
X05163Y14947D01*
X05748Y14947D01*
X05943Y15142D01*
X05943Y15922D01*
X05748Y16117D01*
X05163Y16117D01*
X06332Y15727D02*
X06722Y16117D01*
X06722Y14947D01*
X06332Y14947D02*
X07112Y14947D01*
D16*
X06081Y17436D03*
M02*
