G75*
%MOMM*%
%OFA0B0*%
%FSLAX33Y33*%
%IPPOS*%
%LPD*%
%AMOC8*
5,1,8,0,0,1.08239X$1,22.5*
%
%ADD10C,1.880*%
%ADD11C,0.254*%
%ADD12C,1.016*%
%ADD13C,0.305*%
D10*
X28981Y10711D03*
X26441Y10711D03*
X28981Y13251D03*
X26441Y13251D03*
X28981Y15791D03*
X26441Y15791D03*
X09296Y06901D03*
X11836Y06901D03*
X14376Y06901D03*
X16916Y06901D03*
X09931Y18966D03*
X12471Y18966D03*
X15011Y18966D03*
X17551Y18966D03*
D11*
X15494Y17239D02*
X22352Y17239D01*
X26238Y13353D01*
X26441Y13251D01*
X22123Y15410D02*
X25552Y11981D01*
X27838Y11981D01*
X28981Y10838D01*
X28981Y10711D01*
X12522Y18839D02*
X15951Y15410D01*
X22123Y15410D01*
X12522Y18839D02*
X12471Y18966D01*
X15037Y18839D02*
X15723Y18839D01*
X16866Y17696D01*
X19380Y17696D01*
X20066Y18382D01*
X15037Y18839D02*
X15011Y18966D01*
X10693Y11067D02*
X12751Y11067D01*
X16916Y06901D01*
X17551Y11067D02*
X26010Y11067D01*
X26238Y10838D01*
X26441Y10711D01*
X09322Y06952D02*
X09322Y11067D01*
X10236Y11981D01*
X16637Y11981D01*
X17551Y11067D01*
X09322Y06952D02*
X09296Y06901D01*
D12*
X15494Y17239D03*
X22123Y15410D03*
X20066Y18382D03*
X10693Y11067D03*
X17551Y11067D03*
D13*
X12551Y10584D02*
X15725Y07410D01*
X15646Y07220D01*
X15475Y07635D01*
X15110Y08000D01*
X14634Y08197D01*
X14119Y08197D01*
X13643Y08000D01*
X13278Y07635D01*
X13130Y07277D01*
X13084Y07418D01*
X12988Y07607D01*
X12863Y07778D01*
X12713Y07928D01*
X12542Y08053D01*
X12353Y08149D01*
X12152Y08214D01*
X11942Y08248D01*
X11938Y08248D01*
X11938Y07003D01*
X11735Y07003D01*
X11735Y08248D01*
X11730Y08248D01*
X11521Y08214D01*
X11320Y08149D01*
X11131Y08053D01*
X10959Y07928D01*
X10810Y07778D01*
X10685Y07607D01*
X10589Y07418D01*
X10543Y07277D01*
X10395Y07635D01*
X10030Y08000D01*
X09804Y08093D01*
X09804Y10867D01*
X09831Y10893D01*
X09961Y10578D01*
X10204Y10335D01*
X10522Y10203D01*
X10865Y10203D01*
X11183Y10335D01*
X11426Y10578D01*
X11428Y10584D01*
X12551Y10584D01*
X18650Y18233D02*
X18847Y18709D01*
X18847Y19224D01*
X18712Y19551D01*
X25238Y19551D01*
X25238Y18975D01*
X25389Y18611D01*
X25273Y18332D01*
X25273Y17578D01*
X25455Y17139D01*
X25548Y17046D01*
X25687Y16907D01*
X25564Y16818D01*
X25415Y16668D01*
X25290Y16497D01*
X25194Y16308D01*
X25128Y16107D01*
X25095Y15897D01*
X25095Y15893D01*
X26340Y15893D01*
X26340Y15690D01*
X25095Y15690D01*
X25095Y15685D01*
X25128Y15476D01*
X25194Y15275D01*
X25290Y15086D01*
X25415Y14914D01*
X25564Y14765D01*
X25736Y14640D01*
X25925Y14544D01*
X26066Y14498D01*
X25861Y14413D01*
X22552Y17722D01*
X20627Y17722D01*
X20798Y17893D01*
X20930Y18210D01*
X20930Y18554D01*
X20798Y18871D01*
X20555Y19114D01*
X20238Y19246D01*
X19894Y19246D01*
X19577Y19114D01*
X19334Y18871D01*
X19202Y18554D01*
X19202Y18210D01*
X19205Y18204D01*
X19180Y18179D01*
X18596Y18179D01*
X18650Y18233D01*
X11938Y07064D02*
X11735Y07064D01*
X10572Y07367D02*
X10506Y07367D01*
X11735Y07367D02*
X11938Y07367D01*
X13101Y07367D02*
X13167Y07367D01*
X15586Y07367D02*
X15707Y07367D01*
X10731Y07670D02*
X10359Y07670D01*
X11735Y07670D02*
X11938Y07670D01*
X12942Y07670D02*
X13313Y07670D01*
X15439Y07670D02*
X15465Y07670D01*
X11022Y07974D02*
X10056Y07974D01*
X11735Y07974D02*
X11938Y07974D01*
X12651Y07974D02*
X13617Y07974D01*
X15136Y07974D02*
X15162Y07974D01*
X14858Y08277D02*
X09804Y08277D01*
X09804Y08580D02*
X14555Y08580D01*
X14252Y08884D02*
X09804Y08884D01*
X09804Y09187D02*
X13948Y09187D01*
X13645Y09490D02*
X09804Y09490D01*
X09804Y09794D02*
X13342Y09794D01*
X13038Y10097D02*
X09804Y10097D01*
X09804Y10400D02*
X10139Y10400D01*
X11248Y10400D02*
X12735Y10400D01*
X09909Y10703D02*
X09804Y10703D01*
X25627Y14646D02*
X25727Y14646D01*
X25389Y14950D02*
X25324Y14950D01*
X25205Y15253D02*
X25021Y15253D01*
X25116Y15556D02*
X24717Y15556D01*
X24414Y15859D02*
X26340Y15859D01*
X25147Y16163D02*
X24111Y16163D01*
X23808Y16466D02*
X25274Y16466D01*
X25516Y16769D02*
X23504Y16769D01*
X23201Y17073D02*
X25521Y17073D01*
X25356Y17376D02*
X22898Y17376D01*
X22594Y17679D02*
X25273Y17679D01*
X25273Y17983D02*
X20835Y17983D01*
X19202Y18286D02*
X18672Y18286D01*
X20930Y18286D02*
X25273Y18286D01*
X19217Y18589D02*
X18797Y18589D01*
X20915Y18589D02*
X25379Y18589D01*
X19355Y18893D02*
X18847Y18893D01*
X20777Y18893D02*
X25272Y18893D01*
X19774Y19196D02*
X18847Y19196D01*
X20358Y19196D02*
X25238Y19196D01*
X25238Y19499D02*
X18733Y19499D01*
M02*
