G75*
%MOMM*%
%OFA0B0*%
%FSLAX33Y33*%
%IPPOS*%
%LPD*%
%AMOC8*
5,1,8,0,0,1.08239X$1,22.5*
%
%ADD10C,0.051*%
%ADD11C,0.025*%
%ADD12C,0.076*%
%ADD13C,0.203*%
%ADD14C,0.152*%
D10*
X08456Y05656D02*
X08829Y05656D01*
X09016Y05843D01*
X08829Y06029D01*
X08456Y06029D01*
X08736Y06029D02*
X08736Y05656D01*
X08456Y06404D02*
X09016Y06404D01*
X09016Y06218D02*
X09016Y06591D01*
X09016Y06965D02*
X08456Y06965D01*
X09016Y06779D02*
X09016Y07152D01*
X08829Y07340D02*
X08829Y07434D01*
X08456Y07434D01*
X08456Y07527D02*
X08456Y07340D01*
X09016Y07434D02*
X09109Y07434D01*
X08456Y07715D02*
X08829Y07715D01*
X08829Y07994D01*
X08736Y08087D01*
X08456Y08087D01*
X08829Y08276D02*
X08550Y08276D01*
X08456Y08369D01*
X08456Y08649D01*
X08829Y08649D02*
X08363Y08649D01*
X08270Y08555D01*
X08270Y08462D01*
X08922Y08837D02*
X09016Y08930D01*
X09016Y09117D01*
X08922Y09210D01*
X08829Y09210D01*
X08736Y09117D01*
X08643Y09210D01*
X08550Y09210D01*
X08456Y09117D01*
X08456Y08930D01*
X08550Y08837D01*
X08643Y08837D01*
X08736Y08930D01*
X08829Y08837D01*
X08922Y08837D01*
X08736Y08930D02*
X08736Y09117D01*
X09016Y09771D02*
X09016Y09398D01*
X08736Y09398D01*
X08829Y09585D01*
X08829Y09678D01*
X08736Y09771D01*
X08550Y09771D01*
X08456Y09678D01*
X08456Y09492D01*
X08550Y09398D01*
X22631Y01556D02*
X22631Y00906D01*
X22306Y00906D01*
X22198Y01015D01*
X22198Y01448D01*
X22306Y01556D01*
X22631Y01556D01*
X21986Y00906D02*
X21986Y01015D01*
X21878Y01015D01*
X21878Y00906D01*
X21986Y00906D01*
X21019Y00906D02*
X21019Y01556D01*
X20803Y01340D01*
X20586Y01556D01*
X20586Y00906D01*
X20267Y01340D02*
X20050Y01340D01*
X19942Y01231D01*
X19942Y00906D01*
X20267Y00906D01*
X20375Y01015D01*
X20267Y01123D01*
X19942Y01123D01*
X19730Y00906D02*
X19730Y01340D01*
X19730Y01123D02*
X19514Y01340D01*
X19405Y01340D01*
X19193Y01556D02*
X19193Y00906D01*
X18868Y00906D02*
X19193Y01123D01*
X18868Y01340D01*
X18548Y01340D02*
X18331Y01340D01*
X18223Y01231D01*
X18223Y00906D01*
X18548Y00906D01*
X18656Y01015D01*
X18548Y01123D01*
X18223Y01123D01*
X18012Y00906D02*
X18012Y01340D01*
X18012Y01123D02*
X17795Y01340D01*
X17687Y01340D01*
X17474Y01340D02*
X17366Y01340D01*
X17366Y00906D01*
X17474Y00906D02*
X17258Y00906D01*
X17366Y01556D02*
X17366Y01664D01*
X16936Y01340D02*
X16720Y01340D01*
X16612Y01231D01*
X16612Y00906D01*
X16936Y00906D01*
X17045Y01015D01*
X16936Y01123D01*
X16612Y01123D01*
X16400Y00906D02*
X16400Y01340D01*
X16075Y01340D01*
X15967Y01231D01*
X15967Y00906D01*
X13556Y08379D02*
X13462Y08379D01*
X13462Y08006D01*
X13369Y08006D02*
X13556Y08006D01*
X13462Y08566D02*
X13462Y08659D01*
X13088Y08472D02*
X13088Y08100D01*
X12995Y08006D01*
X12995Y08379D02*
X13181Y08379D01*
X12807Y08006D02*
X12528Y08006D01*
X12434Y08100D01*
X12528Y08193D01*
X12714Y08193D01*
X12807Y08286D01*
X12714Y08379D01*
X12434Y08379D01*
X12246Y08379D02*
X12246Y08100D01*
X12153Y08006D01*
X11873Y08006D01*
X11873Y08379D02*
X11873Y07913D01*
X11966Y07820D01*
X12059Y07820D01*
D11*
X17580Y06794D02*
X17673Y06887D01*
X17394Y06887D01*
X17394Y06794D02*
X17394Y06980D01*
X17440Y07074D02*
X17627Y07074D01*
X17673Y07121D01*
X17673Y07214D01*
X17627Y07261D01*
X17440Y07261D01*
X17394Y07214D01*
X17394Y07121D01*
X17440Y07074D01*
X17627Y07261D01*
X17673Y07355D02*
X17394Y07355D01*
X17487Y07355D02*
X17673Y07541D01*
X17534Y07402D02*
X17394Y07541D01*
X17394Y07916D02*
X17673Y07916D01*
X17673Y08056D01*
X17627Y08103D01*
X17534Y08103D01*
X17487Y08056D01*
X17487Y07916D01*
X17487Y08010D02*
X17394Y08103D01*
X17394Y08337D02*
X17394Y08244D01*
X17440Y08197D01*
X17534Y08197D01*
X17580Y08244D01*
X17580Y08337D01*
X17534Y08383D01*
X17487Y08383D01*
X17487Y08197D01*
X17394Y08478D02*
X17394Y08617D01*
X17440Y08664D01*
X17487Y08617D01*
X17487Y08524D01*
X17534Y08478D01*
X17580Y08524D01*
X17580Y08664D01*
X17580Y08758D02*
X17580Y08805D01*
X17394Y08805D01*
X17394Y08851D02*
X17394Y08758D01*
X17673Y08805D02*
X17720Y08805D01*
X17394Y08945D02*
X17394Y09085D01*
X17440Y09132D01*
X17487Y09085D01*
X17487Y08992D01*
X17534Y08945D01*
X17580Y08992D01*
X17580Y09132D01*
X17627Y09273D02*
X17440Y09273D01*
X17394Y09319D01*
X17580Y09319D02*
X17580Y09226D01*
X17394Y09460D02*
X17394Y09553D01*
X17440Y09600D01*
X17534Y09600D01*
X17580Y09553D01*
X17580Y09460D01*
X17534Y09413D01*
X17440Y09413D01*
X17394Y09460D01*
X17394Y09694D02*
X17580Y09694D01*
X17487Y09694D02*
X17580Y09787D01*
X17580Y09834D01*
X16302Y07275D02*
X16209Y07369D01*
X16209Y07089D01*
X16302Y07089D02*
X16116Y07089D01*
X16022Y07136D02*
X16022Y07322D01*
X15975Y07369D01*
X15882Y07369D01*
X15835Y07322D01*
X15835Y07136D01*
X15882Y07089D01*
X15975Y07089D01*
X16022Y07136D01*
X15835Y07322D01*
X15741Y07369D02*
X15741Y07089D01*
X15741Y07182D02*
X15555Y07369D01*
X15694Y07229D02*
X15555Y07089D01*
X15180Y07089D02*
X15180Y07369D01*
X15040Y07369D01*
X14993Y07322D01*
X14993Y07229D01*
X15040Y07182D01*
X15180Y07182D01*
X15086Y07182D02*
X14993Y07089D01*
X14759Y07089D02*
X14852Y07089D01*
X14899Y07136D01*
X14899Y07229D01*
X14852Y07275D01*
X14759Y07275D01*
X14713Y07229D01*
X14713Y07182D01*
X14899Y07182D01*
X14618Y07089D02*
X14479Y07089D01*
X14432Y07136D01*
X14479Y07182D01*
X14572Y07182D01*
X14618Y07229D01*
X14572Y07275D01*
X14432Y07275D01*
X14338Y07275D02*
X14291Y07275D01*
X14291Y07089D01*
X14245Y07089D02*
X14338Y07089D01*
X14291Y07369D02*
X14291Y07415D01*
X14151Y07089D02*
X14011Y07089D01*
X13964Y07136D01*
X14011Y07182D01*
X14104Y07182D01*
X14151Y07229D01*
X14104Y07275D01*
X13964Y07275D01*
X13823Y07322D02*
X13823Y07136D01*
X13777Y07089D01*
X13777Y07275D02*
X13870Y07275D01*
X13636Y07089D02*
X13543Y07089D01*
X13496Y07136D01*
X13496Y07229D01*
X13543Y07275D01*
X13636Y07275D01*
X13683Y07229D01*
X13683Y07136D01*
X13636Y07089D01*
X13402Y07089D02*
X13402Y07275D01*
X13402Y07182D02*
X13309Y07275D01*
X13262Y07275D01*
X16118Y09394D02*
X16118Y09440D01*
X16072Y09440D01*
X16072Y09394D01*
X16118Y09394D01*
X15978Y09580D02*
X15885Y09673D01*
X15885Y09394D01*
X15978Y09394D02*
X15792Y09394D01*
X15697Y09580D02*
X15697Y09440D01*
X15651Y09394D01*
X15511Y09394D01*
X15511Y09580D01*
X15417Y09394D02*
X15417Y09673D01*
X15230Y09673D01*
X15323Y09534D02*
X15417Y09534D01*
X14669Y09627D02*
X14716Y09673D01*
X14809Y09673D01*
X14855Y09627D01*
X14855Y09440D01*
X14809Y09394D01*
X14716Y09394D01*
X14669Y09440D01*
X14528Y09580D02*
X14435Y09580D01*
X14388Y09534D01*
X14388Y09394D01*
X14528Y09394D01*
X14575Y09440D01*
X14528Y09487D01*
X14388Y09487D01*
X14294Y09300D02*
X14294Y09580D01*
X14154Y09580D01*
X14108Y09534D01*
X14108Y09440D01*
X14154Y09394D01*
X14294Y09394D01*
X13967Y09580D02*
X13874Y09580D01*
X13827Y09534D01*
X13827Y09394D01*
X13967Y09394D01*
X14013Y09440D01*
X13967Y09487D01*
X13827Y09487D01*
X13546Y09580D02*
X13686Y09580D01*
X13733Y09534D01*
X13733Y09440D01*
X13686Y09394D01*
X13546Y09394D01*
X13452Y09580D02*
X13405Y09580D01*
X13405Y09394D01*
X13359Y09394D02*
X13452Y09394D01*
X13405Y09673D02*
X13405Y09720D01*
X13218Y09627D02*
X13218Y09440D01*
X13172Y09394D01*
X13172Y09580D02*
X13265Y09580D01*
X13031Y09394D02*
X12938Y09394D01*
X12891Y09440D01*
X12891Y09534D01*
X12938Y09580D01*
X13031Y09580D01*
X13078Y09534D01*
X13078Y09440D01*
X13031Y09394D01*
X12797Y09394D02*
X12797Y09580D01*
X12797Y09487D02*
X12704Y09580D01*
X12657Y09580D01*
D12*
X09343Y14702D02*
X09343Y14340D01*
X09222Y14219D01*
X08860Y14219D01*
X08860Y14702D01*
X08123Y14944D02*
X08123Y14219D01*
X08486Y14219D01*
X08606Y14340D01*
X08606Y14581D01*
X08486Y14702D01*
X08123Y14702D01*
X07870Y14702D02*
X07387Y14219D01*
X07870Y14219D02*
X07387Y14702D01*
X07133Y14219D02*
X06771Y14219D01*
X06650Y14340D01*
X06771Y14461D01*
X07012Y14461D01*
X07133Y14581D01*
X07012Y14702D01*
X06650Y14702D01*
X06396Y14219D02*
X06396Y14340D01*
X06276Y14340D01*
X06276Y14219D01*
X06396Y14219D01*
X06028Y14219D02*
X06028Y14702D01*
X05907Y14702D01*
X05787Y14581D01*
X05787Y14219D01*
X05787Y14581D02*
X05666Y14702D01*
X05545Y14581D01*
X05545Y14219D01*
X04929Y14219D02*
X05171Y14219D01*
X05291Y14340D01*
X05291Y14581D01*
X05171Y14702D01*
X04929Y14702D01*
X04809Y14581D01*
X04809Y14461D01*
X05291Y14461D01*
X01944Y06336D02*
X01173Y06336D01*
X01019Y06490D01*
X01019Y06798D01*
X01173Y06952D01*
X01944Y06952D01*
X01944Y07257D02*
X01019Y07257D01*
X01019Y07719D01*
X01173Y07873D01*
X01790Y07873D01*
X01944Y07719D01*
X01944Y07257D01*
X01944Y08178D02*
X01019Y08794D01*
X01019Y08178D02*
X01944Y08794D01*
X01790Y09715D02*
X01944Y09561D01*
X01944Y09252D01*
X01790Y09098D01*
X01635Y09098D01*
X01481Y09252D01*
X01481Y09561D01*
X01327Y09715D01*
X01173Y09715D01*
X01019Y09561D01*
X01019Y09252D01*
X01173Y09098D01*
X17143Y08019D02*
X17143Y08646D01*
X16829Y08960D01*
X16516Y08646D01*
X16516Y08019D01*
X16516Y08489D02*
X17143Y08489D01*
X16207Y08646D02*
X16207Y08019D01*
X16207Y08333D02*
X15894Y08646D01*
X15737Y08646D01*
X14801Y08960D02*
X14801Y08019D01*
X15271Y08019D01*
X15428Y08176D01*
X15428Y08489D01*
X15271Y08646D01*
X14801Y08646D01*
X14492Y08646D02*
X14492Y08176D01*
X14335Y08019D01*
X13865Y08019D01*
X13865Y08646D01*
X02735Y10851D02*
X01938Y11648D01*
X02735Y11648D02*
X01938Y10851D01*
X02336Y10851D02*
X02336Y11648D01*
X01938Y11249D02*
X02735Y11249D01*
X02735Y10851D02*
X01938Y11648D01*
X02735Y11648D02*
X01938Y10851D01*
X02336Y10851D02*
X02336Y11648D01*
X01938Y11249D02*
X02735Y11249D01*
D13*
X25982Y06221D02*
X25982Y04951D01*
D14*
X05410Y09832D02*
X05156Y09832D01*
X06426Y09832D02*
X06680Y09832D01*
X07696Y09832D02*
X07950Y09832D01*
X06680Y04447D02*
X06426Y04447D01*
X05410Y04447D02*
X05156Y04447D01*
X04140Y04447D02*
X03886Y04447D01*
X02870Y04447D02*
X02616Y04447D01*
X07950Y09832D02*
X07950Y04447D01*
X07696Y04447D01*
X02616Y04447D02*
X02616Y06834D01*
X02616Y07444D01*
X02616Y09832D01*
X02870Y09832D01*
X03886Y09832D02*
X04140Y09832D01*
X02616Y07444D02*
X02650Y07442D01*
X02684Y07436D01*
X02717Y07427D01*
X02748Y07414D01*
X02778Y07397D01*
X02806Y07377D01*
X02832Y07355D01*
X02854Y07329D01*
X02874Y07301D01*
X02891Y07271D01*
X02904Y07240D01*
X02913Y07207D01*
X02919Y07173D01*
X02921Y07139D01*
X02919Y07105D01*
X02913Y07071D01*
X02904Y07038D01*
X02891Y07007D01*
X02874Y06977D01*
X02854Y06949D01*
X02832Y06923D01*
X02806Y06901D01*
X02778Y06881D01*
X02748Y06864D01*
X02717Y06851D01*
X02684Y06842D01*
X02650Y06836D01*
X02616Y06834D01*
X02650Y06836D01*
X02684Y06842D01*
X02717Y06851D01*
X02748Y06864D01*
X02778Y06881D01*
X02806Y06901D01*
X02832Y06923D01*
X02854Y06949D01*
X02874Y06977D01*
X02891Y07007D01*
X02904Y07038D01*
X02913Y07071D01*
X02919Y07105D01*
X02921Y07139D01*
X02919Y07173D01*
X02913Y07207D01*
X02904Y07240D01*
X02891Y07271D01*
X02874Y07301D01*
X02854Y07329D01*
X02832Y07355D01*
X02806Y07377D01*
X02778Y07397D01*
X02748Y07414D01*
X02717Y07427D01*
X02684Y07436D01*
X02650Y07442D01*
X02616Y07444D01*
M02*
