G75*
%MOMM*%
%OFA0B0*%
%FSLAX33Y33*%
%IPPOS*%
%LPD*%
%AMOC8*
5,1,8,0,0,1.08239X$1,22.5*
%
%ADD10C,0.305*%
%ADD11C,0.051*%
%ADD12C,0.000*%
D10*
X05486Y18331D02*
X08026Y20871D01*
X28981Y20871D01*
X31521Y18331D01*
X31521Y10711D01*
X31519Y10561D01*
X31513Y10412D01*
X31503Y10263D01*
X31490Y10114D01*
X31472Y09965D01*
X31451Y09817D01*
X31425Y09670D01*
X31396Y09523D01*
X31363Y09377D01*
X31326Y09232D01*
X31286Y09088D01*
X31241Y08945D01*
X31193Y08803D01*
X31141Y08663D01*
X31086Y08524D01*
X31027Y08387D01*
X30964Y08251D01*
X30898Y08116D01*
X30828Y07984D01*
X30755Y07854D01*
X30679Y07725D01*
X30599Y07598D01*
X30516Y07474D01*
X30430Y07352D01*
X30340Y07232D01*
X30247Y07114D01*
X30152Y06999D01*
X30053Y06887D01*
X29952Y06777D01*
X29847Y06670D01*
X29740Y06565D01*
X29630Y06464D01*
X29518Y06365D01*
X29403Y06270D01*
X29285Y06177D01*
X29165Y06087D01*
X29043Y06001D01*
X28919Y05918D01*
X28792Y05838D01*
X28664Y05762D01*
X28533Y05689D01*
X28401Y05619D01*
X28266Y05553D01*
X28130Y05490D01*
X27993Y05431D01*
X27854Y05376D01*
X27714Y05324D01*
X27572Y05276D01*
X27429Y05231D01*
X27285Y05191D01*
X27140Y05154D01*
X26994Y05121D01*
X26847Y05092D01*
X26700Y05066D01*
X26552Y05045D01*
X26403Y05027D01*
X26254Y05014D01*
X26105Y05004D01*
X25956Y04998D01*
X25806Y04996D01*
X05486Y04996D01*
X05486Y18331D01*
D11*
X26467Y18095D02*
X26467Y17815D01*
X26560Y17722D01*
X26840Y17722D01*
X26840Y18095D01*
X27401Y18281D02*
X27401Y17722D01*
X27121Y17722D01*
X27028Y17815D01*
X27028Y18001D01*
X27121Y18095D01*
X27401Y18095D01*
X27589Y18095D02*
X27962Y17722D01*
X27589Y17722D02*
X27962Y18095D01*
X28151Y17722D02*
X28430Y17722D01*
X28524Y17815D01*
X28430Y17908D01*
X28244Y17908D01*
X28151Y18001D01*
X28244Y18095D01*
X28524Y18095D01*
X28712Y17722D02*
X28712Y17815D01*
X28805Y17815D01*
X28805Y17722D01*
X28712Y17722D01*
X28993Y17722D02*
X28993Y18095D01*
X29086Y18095D01*
X29179Y18001D01*
X29179Y17722D01*
X29179Y18001D02*
X29272Y18095D01*
X29366Y18001D01*
X29366Y17722D01*
X29834Y17722D02*
X29647Y17722D01*
X29554Y17815D01*
X29554Y18001D01*
X29647Y18095D01*
X29834Y18095D01*
X29927Y18001D01*
X29927Y17908D01*
X29554Y17908D01*
D12*
X26406Y19406D02*
X26408Y19469D01*
X26414Y19531D01*
X26424Y19593D01*
X26437Y19655D01*
X26455Y19715D01*
X26476Y19774D01*
X26501Y19832D01*
X26530Y19888D01*
X26562Y19942D01*
X26597Y19994D01*
X26635Y20043D01*
X26677Y20091D01*
X26721Y20135D01*
X26769Y20177D01*
X26818Y20215D01*
X26870Y20250D01*
X26924Y20282D01*
X26980Y20311D01*
X27038Y20336D01*
X27097Y20357D01*
X27157Y20375D01*
X27219Y20388D01*
X27281Y20398D01*
X27343Y20404D01*
X27406Y20406D01*
X27469Y20404D01*
X27531Y20398D01*
X27593Y20388D01*
X27655Y20375D01*
X27715Y20357D01*
X27774Y20336D01*
X27832Y20311D01*
X27888Y20282D01*
X27942Y20250D01*
X27994Y20215D01*
X28043Y20177D01*
X28091Y20135D01*
X28135Y20091D01*
X28177Y20043D01*
X28215Y19994D01*
X28250Y19942D01*
X28282Y19888D01*
X28311Y19832D01*
X28336Y19774D01*
X28357Y19715D01*
X28375Y19655D01*
X28388Y19593D01*
X28398Y19531D01*
X28404Y19469D01*
X28406Y19406D01*
X28404Y19343D01*
X28398Y19281D01*
X28388Y19219D01*
X28375Y19157D01*
X28357Y19097D01*
X28336Y19038D01*
X28311Y18980D01*
X28282Y18924D01*
X28250Y18870D01*
X28215Y18818D01*
X28177Y18769D01*
X28135Y18721D01*
X28091Y18677D01*
X28043Y18635D01*
X27994Y18597D01*
X27942Y18562D01*
X27888Y18530D01*
X27832Y18501D01*
X27774Y18476D01*
X27715Y18455D01*
X27655Y18437D01*
X27593Y18424D01*
X27531Y18414D01*
X27469Y18408D01*
X27406Y18406D01*
X27343Y18408D01*
X27281Y18414D01*
X27219Y18424D01*
X27157Y18437D01*
X27097Y18455D01*
X27038Y18476D01*
X26980Y18501D01*
X26924Y18530D01*
X26870Y18562D01*
X26818Y18597D01*
X26769Y18635D01*
X26721Y18677D01*
X26677Y18721D01*
X26635Y18769D01*
X26597Y18818D01*
X26562Y18870D01*
X26530Y18924D01*
X26501Y18980D01*
X26476Y19038D01*
X26455Y19097D01*
X26437Y19157D01*
X26424Y19219D01*
X26414Y19281D01*
X26408Y19343D01*
X26406Y19406D01*
X26406Y07406D02*
X26408Y07469D01*
X26414Y07531D01*
X26424Y07593D01*
X26437Y07655D01*
X26455Y07715D01*
X26476Y07774D01*
X26501Y07832D01*
X26530Y07888D01*
X26562Y07942D01*
X26597Y07994D01*
X26635Y08043D01*
X26677Y08091D01*
X26721Y08135D01*
X26769Y08177D01*
X26818Y08215D01*
X26870Y08250D01*
X26924Y08282D01*
X26980Y08311D01*
X27038Y08336D01*
X27097Y08357D01*
X27157Y08375D01*
X27219Y08388D01*
X27281Y08398D01*
X27343Y08404D01*
X27406Y08406D01*
X27469Y08404D01*
X27531Y08398D01*
X27593Y08388D01*
X27655Y08375D01*
X27715Y08357D01*
X27774Y08336D01*
X27832Y08311D01*
X27888Y08282D01*
X27942Y08250D01*
X27994Y08215D01*
X28043Y08177D01*
X28091Y08135D01*
X28135Y08091D01*
X28177Y08043D01*
X28215Y07994D01*
X28250Y07942D01*
X28282Y07888D01*
X28311Y07832D01*
X28336Y07774D01*
X28357Y07715D01*
X28375Y07655D01*
X28388Y07593D01*
X28398Y07531D01*
X28404Y07469D01*
X28406Y07406D01*
X28404Y07343D01*
X28398Y07281D01*
X28388Y07219D01*
X28375Y07157D01*
X28357Y07097D01*
X28336Y07038D01*
X28311Y06980D01*
X28282Y06924D01*
X28250Y06870D01*
X28215Y06818D01*
X28177Y06769D01*
X28135Y06721D01*
X28091Y06677D01*
X28043Y06635D01*
X27994Y06597D01*
X27942Y06562D01*
X27888Y06530D01*
X27832Y06501D01*
X27774Y06476D01*
X27715Y06455D01*
X27655Y06437D01*
X27593Y06424D01*
X27531Y06414D01*
X27469Y06408D01*
X27406Y06406D01*
X27343Y06408D01*
X27281Y06414D01*
X27219Y06424D01*
X27157Y06437D01*
X27097Y06455D01*
X27038Y06476D01*
X26980Y06501D01*
X26924Y06530D01*
X26870Y06562D01*
X26818Y06597D01*
X26769Y06635D01*
X26721Y06677D01*
X26677Y06721D01*
X26635Y06769D01*
X26597Y06818D01*
X26562Y06870D01*
X26530Y06924D01*
X26501Y06980D01*
X26476Y07038D01*
X26455Y07097D01*
X26437Y07157D01*
X26424Y07219D01*
X26414Y07281D01*
X26408Y07343D01*
X26406Y07406D01*
M02*
