G75*
%MOMM*%
%OFA0B0*%
%FSLAX33Y33*%
%IPPOS*%
%LPD*%
%AMOC8*
5,1,8,0,0,1.08239X$1,22.5*
%
%ADD10C,0.254*%
%ADD11C,0.000*%
D10*
X26581Y10981D02*
X26582Y11111D01*
X26579Y11241D01*
X26572Y11371D01*
X26562Y11500D01*
X26547Y11629D01*
X26528Y11758D01*
X26506Y11886D01*
X26480Y12013D01*
X26450Y12139D01*
X26416Y12265D01*
X26378Y12389D01*
X26337Y12512D01*
X26292Y12634D01*
X26243Y12755D01*
X26191Y12873D01*
X26135Y12991D01*
X26075Y13106D01*
X26012Y13220D01*
X25946Y13332D01*
X25877Y13441D01*
X25804Y13549D01*
X25727Y13654D01*
X25648Y13757D01*
X25566Y13857D01*
X25480Y13955D01*
X25392Y14051D01*
X25301Y14143D01*
X25207Y14233D01*
X25111Y14320D01*
X25012Y14404D01*
X24910Y14485D01*
X24806Y14563D01*
X24700Y14638D01*
X24591Y14709D01*
X24480Y14777D01*
X24368Y14842D01*
X24253Y14903D01*
X24137Y14961D01*
X24019Y15015D01*
X23899Y15066D01*
X23778Y15113D01*
X23656Y15156D01*
X23532Y15196D01*
X23407Y15232D01*
X23281Y15264D01*
X23154Y15292D01*
X23027Y15317D01*
X22899Y15337D01*
X22770Y15354D01*
X22640Y15367D01*
X22511Y15376D01*
X22381Y15381D01*
X26581Y10981D02*
X26581Y03781D01*
X26583Y03668D01*
X26581Y03556D01*
X26574Y03443D01*
X26564Y03331D01*
X26550Y03219D01*
X26533Y03107D01*
X26511Y02997D01*
X26486Y02887D01*
X26457Y02778D01*
X26424Y02670D01*
X26388Y02563D01*
X26348Y02458D01*
X26305Y02354D01*
X26257Y02251D01*
X26207Y02151D01*
X26153Y02052D01*
X26096Y01954D01*
X26035Y01859D01*
X25971Y01766D01*
X25904Y01676D01*
X25834Y01587D01*
X25761Y01501D01*
X25686Y01418D01*
X25607Y01337D01*
X25525Y01259D01*
X25441Y01184D01*
X25355Y01112D01*
X25266Y01042D01*
X25175Y00976D01*
X25081Y00913D01*
X24986Y00853D01*
X24888Y00797D01*
X24789Y00743D01*
X24688Y00694D01*
X24585Y00647D01*
X24481Y00605D01*
X24375Y00565D01*
X24268Y00530D01*
X24160Y00498D01*
X24050Y00470D01*
X23940Y00445D01*
X23829Y00425D01*
X23718Y00408D01*
X23606Y00395D01*
X23494Y00386D01*
X23381Y00381D01*
X00381Y00381D01*
X00381Y13581D01*
X02181Y15381D01*
X22381Y15381D01*
D11*
X01581Y13581D02*
X01583Y13644D01*
X01589Y13706D01*
X01599Y13768D01*
X01612Y13830D01*
X01630Y13890D01*
X01651Y13949D01*
X01676Y14007D01*
X01705Y14063D01*
X01737Y14117D01*
X01772Y14169D01*
X01810Y14218D01*
X01852Y14266D01*
X01896Y14310D01*
X01944Y14352D01*
X01993Y14390D01*
X02045Y14425D01*
X02099Y14457D01*
X02155Y14486D01*
X02213Y14511D01*
X02272Y14532D01*
X02332Y14550D01*
X02394Y14563D01*
X02456Y14573D01*
X02518Y14579D01*
X02581Y14581D01*
X02644Y14579D01*
X02706Y14573D01*
X02768Y14563D01*
X02830Y14550D01*
X02890Y14532D01*
X02949Y14511D01*
X03007Y14486D01*
X03063Y14457D01*
X03117Y14425D01*
X03169Y14390D01*
X03218Y14352D01*
X03266Y14310D01*
X03310Y14266D01*
X03352Y14218D01*
X03390Y14169D01*
X03425Y14117D01*
X03457Y14063D01*
X03486Y14007D01*
X03511Y13949D01*
X03532Y13890D01*
X03550Y13830D01*
X03563Y13768D01*
X03573Y13706D01*
X03579Y13644D01*
X03581Y13581D01*
X03579Y13518D01*
X03573Y13456D01*
X03563Y13394D01*
X03550Y13332D01*
X03532Y13272D01*
X03511Y13213D01*
X03486Y13155D01*
X03457Y13099D01*
X03425Y13045D01*
X03390Y12993D01*
X03352Y12944D01*
X03310Y12896D01*
X03266Y12852D01*
X03218Y12810D01*
X03169Y12772D01*
X03117Y12737D01*
X03063Y12705D01*
X03007Y12676D01*
X02949Y12651D01*
X02890Y12630D01*
X02830Y12612D01*
X02768Y12599D01*
X02706Y12589D01*
X02644Y12583D01*
X02581Y12581D01*
X02518Y12583D01*
X02456Y12589D01*
X02394Y12599D01*
X02332Y12612D01*
X02272Y12630D01*
X02213Y12651D01*
X02155Y12676D01*
X02099Y12705D01*
X02045Y12737D01*
X01993Y12772D01*
X01944Y12810D01*
X01896Y12852D01*
X01852Y12896D01*
X01810Y12944D01*
X01772Y12993D01*
X01737Y13045D01*
X01705Y13099D01*
X01676Y13155D01*
X01651Y13213D01*
X01630Y13272D01*
X01612Y13332D01*
X01599Y13394D01*
X01589Y13456D01*
X01583Y13518D01*
X01581Y13581D01*
X22581Y13581D02*
X22583Y13644D01*
X22589Y13706D01*
X22599Y13768D01*
X22612Y13830D01*
X22630Y13890D01*
X22651Y13949D01*
X22676Y14007D01*
X22705Y14063D01*
X22737Y14117D01*
X22772Y14169D01*
X22810Y14218D01*
X22852Y14266D01*
X22896Y14310D01*
X22944Y14352D01*
X22993Y14390D01*
X23045Y14425D01*
X23099Y14457D01*
X23155Y14486D01*
X23213Y14511D01*
X23272Y14532D01*
X23332Y14550D01*
X23394Y14563D01*
X23456Y14573D01*
X23518Y14579D01*
X23581Y14581D01*
X23644Y14579D01*
X23706Y14573D01*
X23768Y14563D01*
X23830Y14550D01*
X23890Y14532D01*
X23949Y14511D01*
X24007Y14486D01*
X24063Y14457D01*
X24117Y14425D01*
X24169Y14390D01*
X24218Y14352D01*
X24266Y14310D01*
X24310Y14266D01*
X24352Y14218D01*
X24390Y14169D01*
X24425Y14117D01*
X24457Y14063D01*
X24486Y14007D01*
X24511Y13949D01*
X24532Y13890D01*
X24550Y13830D01*
X24563Y13768D01*
X24573Y13706D01*
X24579Y13644D01*
X24581Y13581D01*
X24579Y13518D01*
X24573Y13456D01*
X24563Y13394D01*
X24550Y13332D01*
X24532Y13272D01*
X24511Y13213D01*
X24486Y13155D01*
X24457Y13099D01*
X24425Y13045D01*
X24390Y12993D01*
X24352Y12944D01*
X24310Y12896D01*
X24266Y12852D01*
X24218Y12810D01*
X24169Y12772D01*
X24117Y12737D01*
X24063Y12705D01*
X24007Y12676D01*
X23949Y12651D01*
X23890Y12630D01*
X23830Y12612D01*
X23768Y12599D01*
X23706Y12589D01*
X23644Y12583D01*
X23581Y12581D01*
X23518Y12583D01*
X23456Y12589D01*
X23394Y12599D01*
X23332Y12612D01*
X23272Y12630D01*
X23213Y12651D01*
X23155Y12676D01*
X23099Y12705D01*
X23045Y12737D01*
X22993Y12772D01*
X22944Y12810D01*
X22896Y12852D01*
X22852Y12896D01*
X22810Y12944D01*
X22772Y12993D01*
X22737Y13045D01*
X22705Y13099D01*
X22676Y13155D01*
X22651Y13213D01*
X22630Y13272D01*
X22612Y13332D01*
X22599Y13394D01*
X22589Y13456D01*
X22583Y13518D01*
X22581Y13581D01*
X22781Y02181D02*
X22783Y02244D01*
X22789Y02306D01*
X22799Y02368D01*
X22812Y02430D01*
X22830Y02490D01*
X22851Y02549D01*
X22876Y02607D01*
X22905Y02663D01*
X22937Y02717D01*
X22972Y02769D01*
X23010Y02818D01*
X23052Y02866D01*
X23096Y02910D01*
X23144Y02952D01*
X23193Y02990D01*
X23245Y03025D01*
X23299Y03057D01*
X23355Y03086D01*
X23413Y03111D01*
X23472Y03132D01*
X23532Y03150D01*
X23594Y03163D01*
X23656Y03173D01*
X23718Y03179D01*
X23781Y03181D01*
X23844Y03179D01*
X23906Y03173D01*
X23968Y03163D01*
X24030Y03150D01*
X24090Y03132D01*
X24149Y03111D01*
X24207Y03086D01*
X24263Y03057D01*
X24317Y03025D01*
X24369Y02990D01*
X24418Y02952D01*
X24466Y02910D01*
X24510Y02866D01*
X24552Y02818D01*
X24590Y02769D01*
X24625Y02717D01*
X24657Y02663D01*
X24686Y02607D01*
X24711Y02549D01*
X24732Y02490D01*
X24750Y02430D01*
X24763Y02368D01*
X24773Y02306D01*
X24779Y02244D01*
X24781Y02181D01*
X24779Y02118D01*
X24773Y02056D01*
X24763Y01994D01*
X24750Y01932D01*
X24732Y01872D01*
X24711Y01813D01*
X24686Y01755D01*
X24657Y01699D01*
X24625Y01645D01*
X24590Y01593D01*
X24552Y01544D01*
X24510Y01496D01*
X24466Y01452D01*
X24418Y01410D01*
X24369Y01372D01*
X24317Y01337D01*
X24263Y01305D01*
X24207Y01276D01*
X24149Y01251D01*
X24090Y01230D01*
X24030Y01212D01*
X23968Y01199D01*
X23906Y01189D01*
X23844Y01183D01*
X23781Y01181D01*
X23718Y01183D01*
X23656Y01189D01*
X23594Y01199D01*
X23532Y01212D01*
X23472Y01230D01*
X23413Y01251D01*
X23355Y01276D01*
X23299Y01305D01*
X23245Y01337D01*
X23193Y01372D01*
X23144Y01410D01*
X23096Y01452D01*
X23052Y01496D01*
X23010Y01544D01*
X22972Y01593D01*
X22937Y01645D01*
X22905Y01699D01*
X22876Y01755D01*
X22851Y01813D01*
X22830Y01872D01*
X22812Y01932D01*
X22799Y01994D01*
X22789Y02056D01*
X22783Y02118D01*
X22781Y02181D01*
M02*
